<?xml version="1.0" encoding="utf-8"?>
<!-- Generator: Adobe Illustrator 17.0.0, SVG Export Plug-In . SVG Version: 6.00 Build 0)  -->
<!DOCTYPE svg PUBLIC "-//W3C//DTD SVG 1.1//EN" "http://www.w3.org/Graphics/SVG/1.1/DTD/svg11.dtd">
<svg version="1.1" id="Layer_1" xmlns="http://www.w3.org/2000/svg" x="0px" y="0px"
     width="275.89px" height="279.046px" viewBox="0 0 275.89 279.046" enable-background="new 0 0 275.89 279.046"
     xml:space="preserve">
<g>
	<path fill="#00A64E" d="M256.203,278.548H174.22c-3.676,0-6.644-2.967-6.644-6.644c0-3.676,2.968-6.644,6.644-6.644h69.803
		l16.388-191.072h-96.51l5.138,59.793c0.31,3.676-2.392,6.865-6.068,7.175c-3.632,0.31-6.865-2.392-7.175-6.068L149.462,60.9
		h125.433L256.203,278.548z"/>
    <path fill="#00A64E" d="M212.133,108.558c-3.676,0-6.644-2.968-6.644-6.644V37.028l35.566-35.566c2.613-2.613,6.821-2.613,9.39,0
		s2.613,6.821,0,9.39L218.777,42.52v59.395C218.777,105.59,215.809,108.558,212.133,108.558z"/>
    <path fill="#00A64E" d="M264.662,108.558H159.647c-3.676,0-6.644-2.968-6.644-6.644c0-3.676,2.967-6.644,6.644-6.644h105.059
		c3.676,0,6.644,2.968,6.644,6.644C271.35,105.59,268.338,108.558,264.662,108.558z"/>
    <path fill="#00A64E" d="M202.123,202.81H13.664v-6.644c0-48.898,38.755-82.913,94.252-82.913s94.252,34.06,94.252,82.78v6.777
		L202.123,202.81L202.123,202.81z M27.217,189.522H188.57c-3.499-43.45-42.254-62.982-80.699-62.982
		C69.426,126.54,30.716,146.073,27.217,189.522z"/>
    <path fill="#00A64E" d="M172.138,278.548H43.693c-16.565,0-29.985-13.465-29.985-29.985v-17.584c0-3.676,2.967-6.644,6.644-6.644
		c3.676,0,6.644,2.967,6.644,6.644v17.584c0,9.213,7.485,16.698,16.698,16.698h128.445c9.213,0,16.698-7.485,16.698-16.698v-17.584
		c0-3.676,2.968-6.644,6.644-6.644s6.644,2.967,6.644,6.644v17.584C202.123,265.127,188.703,278.548,172.138,278.548z"/>
    <path fill="#00A64E" d="M189.854,237.623H86.124c-3.676,0-6.644-2.967-6.644-6.644c0-3.676,2.968-6.644,6.644-6.644h103.73
		c7.53,0,13.686-4.828,13.686-10.763s-6.112-10.763-13.686-10.763H25.976c-7.53,0-13.686,4.828-13.686,10.763
		s6.112,10.763,13.686,10.763h17.672c3.676,0,6.644,2.967,6.644,6.644c0,3.676-2.968,6.644-6.644,6.644H25.976
		c-14.882,0-26.973-10.807-26.973-24.05s12.091-24.05,26.973-24.05h163.878c14.882,0,26.973,10.807,26.973,24.05
		C216.828,226.816,204.692,237.623,189.854,237.623z"/>
    <path fill="#00A64E" d="M64.864,261.584l-25.91-25.91c-2.613-2.613-2.613-6.821,0-9.39s6.821-2.613,9.39,0l16.521,16.521
		l16.521-16.521c2.613-2.613,6.821-2.613,9.39,0s2.613,6.821,0,9.39L64.864,261.584z"/>
    <circle fill="#00A64E" cx="209.52" cy="133.715" r="6.644"/>
    <circle fill="#00A64E" cx="228.963" cy="155.374" r="6.644"/>
    <circle fill="#00A64E" cx="239.106" cy="126.496" r="6.644"/>
</g>
    <rect x="-39.22" y="-24.803" fill="none" width="354.33" height="354.33"/>
    <rect x="-39.22" y="-24.803" fill="none" width="354.33" height="354.33"/>
</svg>
