<?xml version="1.0" encoding="utf-8"?>
<!-- Generator: Adobe Illustrator 23.0.3, SVG Export Plug-In . SVG Version: 6.00 Build 0)  -->
<svg version="1.1" id="Layer_1" xmlns="http://www.w3.org/2000/svg" x="0px" y="0px"
  viewBox="0 0 67 59.9" style="enable-background:new 0 0 67 59.9;" xml:space="preserve">
<style type="text/css">
	.st0{fill:none;}
	.st1{fill:#1FB164;}
</style>
  <rect x="-7.4" y="-11.1" class="st0" width="80" height="80"/>
  <g>
	<path class="st1" d="M58.9,45.3c-0.7,0-1.4-0.1-2.1-0.3l-49-13.1c-5-1.3-8.4-6.3-7.7-11.5L1.5,9.1C1.7,7.6,2.6,6.3,4,5.7
		S6.8,5.2,8.1,6C9,6.6,9.6,7.5,9.9,8.6l1.9,7.7l20.1,5.4c0.8,0.2,1.3,1,1.1,1.8s-1,1.3-1.8,1.1L9.3,18.7L7,9.3
		C6.9,9,6.7,8.7,6.4,8.5c-0.5-0.3-1-0.2-1.2-0.1C5,8.5,4.6,8.8,4.5,9.4L3.1,20.9C2.6,24.6,5,28.1,8.6,29l49,13.1
		c2.7,0.7,5.5-0.9,6.2-3.6c0.7-2.7-0.9-5.5-3.6-6.2l-14.8-4c-0.8-0.2-1.3-1-1.1-1.8s1-1.3,1.8-1.1l14.8,4c2.1,0.6,3.8,1.9,4.9,3.8
		c1.1,1.9,1.4,4,0.8,6.1C65.7,43,62.5,45.3,58.9,45.3z"/>
    <path class="st1" d="M45.8,28.5c-0.6,0-1.1-0.3-1.4-0.9L33.8,3.9c-0.1-0.3-0.3-0.5-0.6-0.7c-0.5-0.3-1.1-0.3-1.6,0
		c-0.5,0.3-0.8,0.9-0.7,1.5L33,23c0.1,0.8-0.5,1.6-1.3,1.7c-0.8,0.1-1.6-0.5-1.7-1.3L27.9,5.1c-0.2-1.7,0.6-3.4,2-4.4
		c1.5-0.9,3.3-1,4.8-0.1c0.8,0.5,1.4,1.2,1.8,2l10.7,23.7c0.3,0.8,0,1.6-0.8,2C46.2,28.4,46,28.5,45.8,28.5z"/>
    <path class="st1" d="M45.8,28.5c-0.6,0-1.1-0.3-1.4-0.9L33.8,3.9c-0.1-0.3-0.3-0.5-0.6-0.7c-0.5-0.3-1.1-0.3-1.6,0
		c-0.5,0.3-0.8,0.9-0.7,1.5L33,23c0.1,0.8-0.5,1.6-1.3,1.7c-0.8,0.1-1.6-0.5-1.7-1.3L27.9,5.1c-0.2-1.7,0.6-3.4,2-4.4
		c1.5-0.9,3.3-1,4.8-0.1c0.8,0.5,1.4,1.2,1.8,2l10.7,23.7c0.3,0.8,0,1.6-0.8,2C46.2,28.4,46,28.5,45.8,28.5z"/>
</g>
  <path class="st1" d="M62.6,59.9h-60c-0.8,0-1.5-0.7-1.5-1.5s0.7-1.5,1.5-1.5h60c0.8,0,1.5,0.7,1.5,1.5S63.4,59.9,62.6,59.9z"/>
</svg>
