<?xml version="1.0" encoding="utf-8"?>
<!-- Generator: Adobe Illustrator 23.0.3, SVG Export Plug-In . SVG Version: 6.00 Build 0)  -->
<svg version="1.1" id="Layer_1" xmlns="http://www.w3.org/2000/svg" x="0px" y="0px"
  viewBox="0 0 138.2 72.1" style="enable-background:new 0 0 138.2 72.1;" xml:space="preserve">
<style type="text/css">
	.st0{fill:none;}
	.st1{fill:#FFFFFF;}
	.st2{fill:#FFE155;}
	.st3{fill:#0B6F55;}
</style>
  <rect x="-16.3" y="-4" class="st0" width="80" height="80"/>
  <g>
	<path class="st1" d="M39.8,67.1H7.5c-4.1,0-7.5-3.4-7.5-7.5v-43c0-4.1,3.4-7.5,7.5-7.5h32.3c4.1,0,7.5,3.4,7.5,7.5v43
		C47.3,63.8,44,67.1,39.8,67.1z M7.5,12.1c-2.5,0-4.5,2-4.5,4.5v43c0,2.5,2,4.5,4.5,4.5h32.3c2.5,0,4.5-2,4.5-4.5v-43
		c0-2.5-2-4.5-4.5-4.5H7.5z"/>
    <path class="st1" d="M35.1,10.6h-3V4.5c0-0.8-0.7-1.5-1.5-1.5H16.7c-0.8,0-1.5,0.7-1.5,1.5v6.1h-3V4.5c0-2.5,2-4.5,4.5-4.5h13.9
		c2.5,0,4.5,2,4.5,4.5L35.1,10.6L35.1,10.6z"/>
    <g>
		<path class="st1" d="M8.4,72.1c-2.8,0-5.1-2.3-5.1-5.1c0-0.8,0.2-1.5,0.5-2.3l2.7,1.3c-0.1,0.3-0.2,0.6-0.2,0.9
			c0,1.1,0.9,2.1,2,2.1s2-0.9,2-2.1c0-0.3-0.1-0.6-0.2-0.8l2.8-1.2c0.3,0.6,0.4,1.3,0.4,2C13.5,69.8,11.2,72.1,8.4,72.1z"/>
      <path class="st1" d="M38.9,72.1c-2.8,0-5-2.3-5-5.1c0-0.7,0.1-1.3,0.4-2l2.8,1.2c-0.1,0.3-0.2,0.5-0.2,0.8c0,1.1,0.9,2.1,2,2.1
			s2-0.9,2-2.1c0-0.3-0.1-0.6-0.2-0.9l2.7-1.3c0.3,0.7,0.5,1.5,0.5,2.3C43.9,69.8,41.7,72.1,38.9,72.1z"/>
	</g>
    <g>
		<rect x="1.5" y="17.2" class="st1" width="44.3" height="3"/>
      <rect x="1.5" y="56" class="st1" width="44.3" height="3"/>
	</g>
</g>
  <g>
	<path class="st2" d="M37.3,41.7l-5.6-1.4c-0.2,0-0.4,0-0.6,0.1l-4.3,3.8c-0.4,0.4-1.1,0.1-1.1-0.5L25.3,38c0-0.2-0.1-0.4-0.3-0.5
		l-5-3c-0.5-0.3-0.4-1,0.1-1.2l5.4-2.1c0.2-0.1,0.3-0.3,0.4-0.5l1.3-5.6c0.1-0.5,0.8-0.7,1.2-0.3l3.7,4.4c0.1,0.2,0.3,0.3,0.6,0.2
		l5.7-0.5c0.5,0,0.9,0.5,0.6,1l-3.1,4.9c-0.1,0.2-0.1,0.4,0,0.6l2.3,5.3C38.3,41.3,37.9,41.9,37.3,41.7z"/>
    <path class="st2" d="M26.4,46.1c-0.3,0-0.6-0.1-0.9-0.2c-0.8-0.3-1.4-1.1-1.4-2l-0.3-5.2L19.2,36c-0.8-0.5-1.2-1.3-1.1-2.2
		c0.1-0.9,0.6-1.6,1.5-2l4.9-1.9l1.2-5.1c0.2-0.9,0.8-1.5,1.7-1.7c0.9-0.2,1.8,0.1,2.3,0.8l3.4,4l5.2-0.5c0.9-0.1,1.7,0.3,2.2,1.1
		c0.5,0.8,0.5,1.7,0,2.4l-2.8,4.4l2.1,4.8c0.3,0.8,0.2,1.7-0.4,2.4c-0.6,0.7-1.5,1-2.3,0.7L31.9,42l-4,3.5
		C27.5,45.9,26.9,46.1,26.4,46.1z M22.6,34.2l3.2,1.9c0.7,0.4,1.1,1.1,1.1,1.8l0.3,3.8l2.8-2.5c0.6-0.5,1.3-0.7,2.1-0.5l3.7,0.9
		l-1.5-3.5c-0.3-0.7-0.2-1.5,0.2-2.2l2-3.2l-3.8,0.3c-0.8,0.1-1.5-0.2-2-0.8l-2.4-2.9l-0.8,3.7c-0.2,0.7-0.7,1.3-1.4,1.6L22.6,34.2z
		 M32.2,41.7L32.2,41.7C32.2,41.7,32.2,41.7,32.2,41.7z M24.2,38.9L24.2,38.9L24.2,38.9z M37.3,35.8L37.3,35.8L37.3,35.8z
		 M33.3,28.2L33.3,28.2L33.3,28.2z M32.5,27.9C32.5,27.9,32.5,27.9,32.5,27.9L32.5,27.9z M28.8,25.5L28.8,25.5L28.8,25.5z"/>
</g>
  <g>
	<circle class="st3" cx="12.9" cy="46" r="4.7"/>
    <path class="st3" d="M12.9,52.2c-3.4,0-6.2-2.8-6.2-6.2s2.8-6.2,6.2-6.2s6.2,2.8,6.2,6.2S16.4,52.2,12.9,52.2z M12.9,42.7
		c-1.8,0-3.2,1.5-3.2,3.2s1.5,3.2,3.2,3.2s3.2-1.5,3.2-3.2S14.7,42.7,12.9,42.7z"/>
</g>
  <g>
	<rect x="62.2" y="-4.4" class="st0" width="80" height="80"/>
    <g>
		<path class="st1" d="M70.1,31.4c-3.4,0-6.1-2.6-6.1-5.8v-8.4c0-0.8,0.7-1.5,1.5-1.5c0.8,0,1.5,0.7,1.5,1.5v8.4
			c0,1.6,1.4,2.8,3.1,2.8c1.7,0,3.1-1.3,3.1-2.8v-8.4c0-0.8,0.7-1.5,1.5-1.5s1.5,0.7,1.5,1.5v8.4C76.2,28.8,73.4,31.4,70.1,31.4z"/>
      <path class="st1" d="M70.1,55.8c-0.8,0-1.5-0.7-1.5-1.5V17.1c0-0.8,0.7-1.5,1.5-1.5c0.8,0,1.5,0.7,1.5,1.5v37.2
			C71.6,55.1,70.9,55.8,70.1,55.8z"/>
	</g>
    <g>
		<path class="st1" d="M136.7,55.8c-0.8,0-1.5-0.7-1.5-1.5V17.4c0-0.8,0.7-1.5,1.5-1.5s1.5,0.7,1.5,1.5v36.9
			C138.2,55.1,137.5,55.8,136.7,55.8z"/>
      <path class="st1" d="M138.2,40.6H130V21.4c0-3.2,2.6-5.8,5.8-5.8h2.4V40.6z M133,37.6h2.3V18.7c-1.3,0.3-2.3,1.4-2.3,2.7V37.6z"/>
	</g>
    <g>
		<path class="st1" d="M120.8,55.7H83.9c-3,0-5.5-2.5-5.5-5.5v-29c0-3,2.5-5.5,5.5-5.5h36.9c3,0,5.5,2.5,5.5,5.5v29
			C126.3,53.2,123.8,55.7,120.8,55.7z M83.9,18.6c-1.4,0-2.5,1.1-2.5,2.5v29c0,1.4,1.1,2.5,2.5,2.5h36.9c1.4,0,2.5-1.1,2.5-2.5v-29
			c0-1.4-1.1-2.5-2.5-2.5H83.9z"/>
      <g>
			<rect x="86.2" y="23.4" class="st2" width="15" height="24.4"/>
        <path class="st2" d="M102.7,49.3h-18V21.9h18V49.3z M87.7,46.3h12V24.9h-12V46.3z"/>
		</g>
      <path class="st1" d="M118.3,33.6c-0.4,0-0.9-0.2-1.2-0.5l0,0l-8.7-8.1c-0.5-0.5-0.7-1.3-0.4-2c0.3-0.7,0.9-1.1,1.7-1.1h7
			c1.9,0,3.5,1.6,3.5,3.5v6.4c0,0.7-0.4,1.3-1.1,1.6C118.8,33.6,118.5,33.6,118.3,33.6z M112.7,24.9l4.4,4.1v-3.6
			c0-0.3-0.2-0.5-0.5-0.5C116.6,24.9,112.7,24.9,112.7,24.9z"/>
      <g>
			<circle class="st3" cx="112.6" cy="42.3" r="6"/>
        <path class="st3" d="M112.6,49.8c-4.2,0-7.5-3.4-7.5-7.5s3.4-7.5,7.5-7.5s7.5,3.4,7.5,7.5S116.7,49.8,112.6,49.8z M112.6,37.8
				c-2.5,0-4.5,2-4.5,4.5s2,4.5,4.5,4.5c2.5,0,4.5-2,4.5-4.5S115.1,37.8,112.6,37.8z"/>
		</g>
	</g>
</g>
</svg>
