<?xml version="1.0" encoding="utf-8"?>
<!-- Generator: Adobe Illustrator 17.0.0, SVG Export Plug-In . SVG Version: 6.00 Build 0)  -->
<!DOCTYPE svg PUBLIC "-//W3C//DTD SVG 1.1//EN" "http://www.w3.org/Graphics/SVG/1.1/DTD/svg11.dtd">
<svg version="1.1" id="Layer_1" xmlns="http://www.w3.org/2000/svg" x="0px" y="0px"
     width="239.173px" height="239.151px" viewBox="1014.296 57.601 239.173 239.151"
     enable-background="new 1014.296 57.601 239.173 239.151" xml:space="preserve">
<path fill="#00A64E" d="M1244.588,296.751c-2.259,0-4.518-0.886-6.245-2.613l-117.017-116.973l116.973-116.973
	c3.455-3.455,9.08-3.455,12.534,0s3.455,9.08,0,12.534l-104.439,104.439l104.483,104.483c3.455,3.455,3.455,9.08,0,12.534
	C1249.106,295.866,1246.847,296.751,1244.588,296.751z"/>
    <path fill="#00A64E" d="M1023.132,296.751c-2.259,0-4.518-0.886-6.245-2.613c-3.455-3.455-3.455-9.08,0-12.534l104.439-104.439
	L1016.887,72.682c-3.455-3.455-3.455-9.08,0-12.534c3.455-3.455,9.08-3.455,12.534,0l116.973,117.017l-117.017,116.973
	C1027.65,295.866,1025.391,296.751,1023.132,296.751z"/>
    <path fill="none" d="M956.695,0h354.33v354.33h-354.33V0z"/>
</svg>
