<?xml version="1.0" encoding="utf-8"?>
<!-- Generator: Adobe Illustrator 17.0.0, SVG Export Plug-In . SVG Version: 6.00 Build 0)  -->
<!DOCTYPE svg PUBLIC "-//W3C//DTD SVG 1.1//EN" "http://www.w3.org/Graphics/SVG/1.1/DTD/svg11.dtd">
<svg version="1.1" id="Layer_1" xmlns="http://www.w3.org/2000/svg" x="0px" y="0px"
     width="210.147px" height="319.251px" viewBox="0 0 210.147 319.251" enable-background="new 0 0 210.147 319.251"
     xml:space="preserve">
<rect x="-72.092" y="-17.004" fill="none" width="354.33" height="354.33"/>
    <g>
	<path fill="#00A64E" d="M71.988,126.19c3.986,0,7.618,0.576,10.94,1.772c3.322,1.196,6.156,2.835,8.504,5.005
		s4.208,4.739,5.492,7.751c1.329,3.012,1.993,6.378,1.993,10.098c0,3.189-0.487,6.156-1.417,8.858
		c-0.93,2.702-2.215,5.315-3.765,7.751c-1.594,2.48-3.41,4.872-5.536,7.175c-2.126,2.303-4.341,4.651-6.644,7.042l-19.488,19.931
		c1.905-0.576,3.809-0.974,5.625-1.284s3.588-0.443,5.271-0.443h22.19c1.594,0,2.879,0.443,3.809,1.329
		c0.93,0.886,1.417,2.082,1.417,3.543v8.858h-59.35v-4.916c0-0.974,0.221-2.037,0.62-3.1s1.107-2.082,1.993-3.012l26.265-26.309
		c2.215-2.215,4.163-4.385,5.891-6.422c1.727-2.037,3.189-4.031,4.385-6.024s2.082-4.031,2.702-6.068
		c0.62-2.037,0.93-4.208,0.93-6.467c0-2.082-0.31-3.898-0.886-5.492c-0.576-1.594-1.462-2.879-2.569-3.986
		c-1.107-1.063-2.436-1.905-3.986-2.436c-1.55-0.531-3.278-0.797-5.182-0.797c-3.543,0-6.466,0.886-8.77,2.702
		c-2.303,1.772-3.898,4.208-4.828,7.219c-0.443,1.506-1.107,2.613-1.993,3.278c-0.886,0.664-1.993,0.974-3.366,0.974
		c-0.576,0-1.24-0.044-1.993-0.177l-7.751-1.373c0.576-4.163,1.772-7.795,3.455-10.896c1.727-3.145,3.853-5.758,6.422-7.84
		s5.536-3.676,8.858-4.739C64.592,126.721,68.178,126.19,71.988,126.19z"/>
        <path fill="#00A64E" d="M171.201,170.392c0,7.53-0.797,14.085-2.436,19.621c-1.595,5.581-3.853,10.143-6.688,13.775
		c-2.835,3.632-6.201,6.334-10.098,8.105c-3.898,1.772-8.061,2.657-12.579,2.657s-8.681-0.886-12.534-2.657
		c-3.853-1.772-7.175-4.473-10.01-8.105c-2.835-3.632-5.049-8.238-6.644-13.775s-2.392-12.092-2.392-19.621
		c0-7.574,0.797-14.129,2.392-19.665s3.809-10.143,6.644-13.775c2.835-3.632,6.156-6.334,10.01-8.105
		c3.853-1.772,8.017-2.657,12.534-2.657s8.681,0.886,12.579,2.657c3.898,1.772,7.264,4.473,10.098,8.105
		c2.835,3.632,5.094,8.194,6.688,13.775S171.201,162.818,171.201,170.392z M155.92,170.392c0-6.245-0.443-11.427-1.373-15.546
		s-2.126-7.397-3.676-9.788c-1.55-2.436-3.277-4.119-5.271-5.093c-1.993-0.974-4.075-1.462-6.201-1.462
		c-2.126,0-4.163,0.487-6.112,1.462c-1.993,0.974-3.72,2.702-5.226,5.093c-1.506,2.436-2.702,5.714-3.632,9.788
		c-0.886,4.119-1.329,9.301-1.329,15.546c0,6.245,0.443,11.427,1.329,15.546s2.082,7.397,3.632,9.788
		c1.506,2.436,3.278,4.119,5.226,5.093c1.993,0.974,4.031,1.462,6.112,1.462c2.17,0,4.208-0.487,6.201-1.462
		c1.993-0.974,3.765-2.702,5.271-5.093c1.55-2.436,2.746-5.714,3.676-9.788C155.476,181.819,155.92,176.637,155.92,170.392z"/>
</g>
    <g>
	<path fill="#00A64E" d="M176.649,297.818H33.499c-18.337,0-33.219-14.882-33.219-33.218V73.97
		c0-18.337,14.882-33.218,33.219-33.218h143.149c18.337,0,33.218,14.882,33.218,33.218V264.6
		C209.866,282.936,194.984,297.818,176.649,297.818z M33.499,54.039c-10.984,0-19.931,8.947-19.931,19.931V264.6
		c0,10.984,8.947,19.931,19.931,19.931h143.149c10.984,0,19.931-8.947,19.931-19.931V73.97c0-10.984-8.947-19.931-19.931-19.931
		H33.499z"/>
        <path fill="#00A64E" d="M155.698,47.395h-13.287V20.466c0-3.676-2.968-6.644-6.644-6.644H74.379c-3.676,0-6.644,2.968-6.644,6.644
		v26.929H54.448V20.466c0-10.984,8.947-19.931,19.931-19.931h61.432c10.984,0,19.931,8.947,19.931,19.931v26.929H155.698z"/>
        <g>
		<path fill="#00A64E" d="M37.662,319.787c-12.313,0-22.367-10.054-22.367-22.367c0-3.499,0.797-6.821,2.347-9.966l11.914,5.935
			c-0.62,1.24-0.93,2.613-0.93,4.031c0,5.005,4.075,9.08,9.08,9.08s9.08-4.075,9.08-9.08c0-1.24-0.266-2.436-0.753-3.588
			l12.224-5.226c1.196,2.79,1.816,5.758,1.816,8.814C60.03,309.733,50.02,319.787,37.662,319.787z"/>
            <path fill="#00A64E" d="M172.484,319.787c-12.313,0-22.367-10.054-22.367-22.367c0-3.012,0.576-5.935,1.772-8.725l12.224,5.182
			c-0.487,1.107-0.709,2.303-0.709,3.543c0,5.005,4.075,9.08,9.08,9.08s9.08-4.075,9.08-9.08c0-1.417-0.31-2.79-0.93-4.031
			l11.914-5.935c1.55,3.1,2.347,6.467,2.347,9.966C194.851,309.733,184.797,319.787,172.484,319.787z"/>
	</g>
        <g>
		<rect x="6.924" y="76.539" fill="#00A64E" width="196.299" height="13.287"/>
            <rect x="6.924" y="248.788" fill="#00A64E" width="196.299" height="13.287"/>
	</g>
</g>
</svg>
