<?xml version="1.0" encoding="utf-8"?>
<!-- Generator: Adobe Illustrator 23.0.3, SVG Export Plug-In . SVG Version: 6.00 Build 0)  -->
<svg version="1.1" id="Layer_1" xmlns="http://www.w3.org/2000/svg" x="0px" y="0px"
  viewBox="0 0 63 63" style="enable-background:new 0 0 63 63;" xml:space="preserve">
<style type="text/css">
	.st0{fill:#A5A5A5;}
	.st1{fill:none;}
</style>
  <path class="st0" d="M31.5,63C14.1,63,0,48.9,0,31.5S14.1,0,31.5,0S63,14.1,63,31.5S48.9,63,31.5,63z M31.5,3C15.8,3,3,15.8,3,31.5
	S15.8,60,31.5,60S60,47.2,60,31.5S47.2,3,31.5,3z"/>
  <path class="st0" d="M46.5,33h-30c-0.8,0-1.5-0.7-1.5-1.5s0.7-1.5,1.5-1.5h30c0.8,0,1.5,0.7,1.5,1.5S47.3,33,46.5,33z"/>
  <rect x="-8.5" y="-8.5" class="st1" width="80" height="80"/>
</svg>
