<?xml version="1.0" encoding="utf-8"?>
<!-- Generator: Adobe Illustrator 23.0.3, SVG Export Plug-In . SVG Version: 6.00 Build 0)  -->
<svg version="1.1" id="Layer_1" xmlns="http://www.w3.org/2000/svg" x="0px" y="0px"
  viewBox="0 0 72.1 59.9" style="enable-background:new 0 0 72.1 59.9;" xml:space="preserve">
<style type="text/css">
	.st0{fill:none;}
	.st1{fill:#2FB66F;}
</style>
  <rect x="-4.6" y="-11.1" class="st0" width="80" height="80"/>
  <g>
	<path class="st1" d="M14.4,40.9c-4.1,0-8-2.5-9.7-6.4L0.3,23.9c-0.6-1.4-0.4-2.9,0.4-4.1c0.9-1.2,2.2-1.9,3.7-1.8
		c1.1,0.1,2.1,0.5,2.8,1.3l5.5,5.7l20.1-5.4c0.8-0.2,1.6,0.3,1.8,1.1s-0.3,1.6-1.1,1.8l-21.8,5.8l-6.8-7c-0.2-0.2-0.5-0.4-0.8-0.4
		c-0.6-0.1-1,0.4-1.1,0.5S2.6,22,2.9,22.6l4.5,10.6c1.4,3.4,5.3,5.3,8.8,4.3l49-13.1c2.7-0.7,4.3-3.5,3.6-6.2
		c-0.3-1.3-1.2-2.4-2.4-3.1s-2.5-0.9-3.8-0.5l-14.8,4c-0.8,0.2-1.6-0.3-1.8-1.1c-0.2-0.8,0.3-1.6,1.1-1.8l14.8-4
		c2.1-0.5,4.3-0.3,6.1,0.8s3.2,2.8,3.8,4.9c1.2,4.3-1.4,8.7-5.7,9.9l-49,13.1C16.2,40.8,15.3,40.9,14.4,40.9z"/>
    <path class="st1" d="M33.3,22.6c-0.5,0-0.9-0.2-1.2-0.6l-11-14.7c-1-1.4-1.2-3.2-0.4-4.8C21.5,1,23,0,24.7,0c0,0,0,0,0.1,0
		c0.9,0,1.8,0.3,2.6,0.9l21.1,15.2c0.7,0.5,0.8,1.4,0.3,2.1s-1.4,0.8-2.1,0.3L25.6,3.3C25.3,3.1,25,3,24.7,3l0,0
		c-0.6,0-1.1,0.3-1.4,0.8s-0.2,1.1,0.1,1.6l11,14.7c0.5,0.7,0.4,1.6-0.3,2.1C33.9,22.5,33.6,22.6,33.3,22.6z"/>
    <path class="st1" d="M33.3,22.6c-0.5,0-0.9-0.2-1.2-0.6l-11-14.7c-1-1.4-1.2-3.2-0.4-4.8C21.5,1,23,0,24.7,0c0,0,0,0,0.1,0
		c0.9,0,1.8,0.3,2.6,0.9l21.1,15.2c0.7,0.5,0.8,1.4,0.3,2.1s-1.4,0.8-2.1,0.3L25.6,3.3C25.3,3.1,25,3,24.7,3l0,0
		c-0.6,0-1.1,0.3-1.4,0.8s-0.2,1.1,0.1,1.6l11,14.7c0.5,0.7,0.4,1.6-0.3,2.1C33.9,22.5,33.6,22.6,33.3,22.6z"/>
</g>
  <path class="st1" d="M65.4,59.9h-60c-0.8,0-1.5-0.7-1.5-1.5s0.7-1.5,1.5-1.5h60c0.8,0,1.5,0.7,1.5,1.5S66.2,59.9,65.4,59.9z"/>
</svg>
