<?xml version="1.0" encoding="utf-8"?>
<!-- Generator: Adobe Illustrator 17.0.0, SVG Export Plug-In . SVG Version: 6.00 Build 0)  -->
<!DOCTYPE svg PUBLIC "-//W3C//DTD SVG 1.1//EN" "http://www.w3.org/Graphics/SVG/1.1/DTD/svg11.dtd">
<svg version="1.1" id="Layer_1" xmlns="http://www.w3.org/2000/svg" x="0px" y="0px"
     width="319.495px" height="222.209px" viewBox="974.068 67.721 319.495 222.209"
     enable-background="new 974.068 67.721 319.495 222.209" xml:space="preserve">
<g>
	<path d="M1288.082,142.662c-1.417,0-2.835-0.531-3.898-1.639c-40.172-40.128-93.543-62.229-150.324-62.229
		s-110.152,22.101-150.325,62.273c-2.17,2.17-5.669,2.17-7.84,0c-2.17-2.17-2.17-5.669,0-7.84
		c42.254-42.254,98.415-65.507,158.12-65.507c59.749,0,115.91,23.253,158.12,65.507c2.17,2.17,2.17,5.669,0,7.84
		C1290.917,142.131,1289.499,142.662,1288.082,142.662z"/>
    <path d="M1253.801,176.944c-1.417,0-2.835-0.531-3.898-1.639c-31.004-31.004-72.195-48.056-116.043-48.056
		c-43.848,0-85.039,17.052-116.043,48.056c-2.17,2.17-5.669,2.17-7.84,0c-2.17-2.17-2.17-5.669,0-7.84
		c33.086-33.041,77.111-51.289,123.883-51.289s90.797,18.204,123.883,51.289c2.17,2.17,2.17,5.669,0,7.84
		C1256.635,176.412,1255.218,176.944,1253.801,176.944z"/>
    <path d="M1048.201,211.225c-1.417,0-2.835-0.531-3.898-1.639c-2.17-2.17-2.17-5.669,0-7.84
		c23.917-23.917,55.763-37.116,89.601-37.116s65.684,13.199,89.601,37.116c2.17,2.17,2.17,5.669,0,7.84
		c-2.17,2.17-5.669,2.17-7.84,0c-21.836-21.836-50.891-33.883-81.762-33.883s-59.926,12.047-81.762,33.883
		C1050.991,210.693,1049.618,211.225,1048.201,211.225z"/>
    <path d="M1185.282,245.506c-1.417,0-2.835-0.531-3.898-1.639c-12.667-12.667-29.542-19.665-47.48-19.665
		s-34.813,6.998-47.48,19.665c-2.17,2.17-5.669,2.17-7.84,0c-2.17-2.17-2.17-5.669,0-7.84c14.793-14.793,34.414-22.899,55.32-22.899
		c20.905,0,40.526,8.15,55.32,22.899c2.17,2.17,2.17,5.669,0,7.84C1188.117,244.931,1186.699,245.506,1185.282,245.506z"/>
    <path d="M1133.86,289.93c-11.737,0-21.304-9.567-21.304-21.304s9.567-21.304,21.304-21.304s21.304,9.567,21.304,21.304
		C1155.164,280.408,1145.597,289.93,1133.86,289.93z M1133.86,258.439c-5.625,0-10.231,4.606-10.231,10.231
		c0,5.625,4.606,10.231,10.231,10.231s10.231-4.606,10.231-10.231C1144.091,263.046,1139.485,258.439,1133.86,258.439z"/>
</g>
    <rect x="956.695" y="0" fill="none" width="354.33" height="354.33"/>
</svg>
