<?xml version="1.0" encoding="utf-8"?>
<!-- Generator: Adobe Illustrator 17.0.0, SVG Export Plug-In . SVG Version: 6.00 Build 0)  -->
<!DOCTYPE svg PUBLIC "-//W3C//DTD SVG 1.1//EN" "http://www.w3.org/Graphics/SVG/1.1/DTD/svg11.dtd">
<svg version="1.1" id="Layer_1" xmlns="http://www.w3.org/2000/svg" xmlns:xlink="http://www.w3.org/1999/xlink" x="0px" y="0px"
	 width="209.586px" height="319.251px" viewBox="0 0 209.586 319.251" enable-background="new 0 0 209.586 319.251"
	 xml:space="preserve">
<rect x="-71.966" y="-17.539" fill="none" width="354.33" height="354.33"/>
<path fill="#010101" d="M73.929,125.655c3.986,0,7.574,0.576,10.807,1.683c3.189,1.152,5.935,2.702,8.238,4.739
	s4.031,4.385,5.226,7.087c1.196,2.702,1.816,5.625,1.816,8.77c0,2.746-0.31,5.182-0.93,7.264s-1.506,3.898-2.702,5.448
	s-2.613,2.879-4.296,3.942s-3.632,1.993-5.758,2.702c5.182,1.639,9.035,4.119,11.604,7.485s3.809,7.574,3.809,12.623
	c0,4.296-0.797,8.105-2.392,11.427c-1.594,3.322-3.765,6.112-6.467,8.327c-2.702,2.259-5.846,3.942-9.434,5.094
	s-7.352,1.727-11.339,1.727c-4.341,0-8.15-0.487-11.339-1.506c-3.233-1.019-6.024-2.48-8.415-4.429s-4.429-4.341-6.112-7.175
	c-1.683-2.835-3.1-6.112-4.296-9.788l6.511-2.702c1.107-0.487,2.259-0.709,3.41-0.709c1.019,0,1.949,0.221,2.79,0.664
	c0.797,0.443,1.462,1.063,1.86,1.905c0.709,1.417,1.506,2.79,2.348,4.119c0.842,1.329,1.905,2.569,3.1,3.632
	c1.196,1.063,2.613,1.905,4.208,2.569c1.594,0.664,3.543,0.974,5.758,0.974c2.525,0,4.695-0.399,6.555-1.24
	c1.86-0.797,3.455-1.86,4.695-3.189s2.17-2.79,2.79-4.385s0.93-3.233,0.93-4.872c0-2.082-0.222-3.942-0.664-5.669
	c-0.443-1.683-1.373-3.145-2.746-4.341c-1.417-1.196-3.41-2.126-6.024-2.79c-2.613-0.664-6.112-1.019-10.497-1.019v-10.586
	c3.632,0,6.644-0.31,9.035-0.974c2.392-0.62,4.296-1.506,5.714-2.657s2.392-2.48,2.968-4.075c0.576-1.594,0.842-3.366,0.842-5.271
	c0-4.119-1.107-7.219-3.366-9.301c-2.214-2.082-5.271-3.145-9.168-3.145c-3.499,0-6.422,0.93-8.725,2.79s-3.942,4.252-4.828,7.131
	c-0.487,1.506-1.152,2.613-1.993,3.278c-0.842,0.664-1.949,0.974-3.278,0.974c-0.62,0-1.329-0.044-2.037-0.177l-7.751-1.373
	c0.576-4.163,1.772-7.795,3.455-10.896c1.727-3.145,3.853-5.758,6.422-7.84s5.536-3.676,8.858-4.739
	C66.488,126.186,70.076,125.655,73.929,125.655z"/>
<g>
	<path fill="#010101" d="M176.774,297.283H33.625c-18.337,0-33.218-14.882-33.218-33.218V73.435
		c0-18.337,14.882-33.218,33.218-33.218h143.149c18.337,0,33.218,14.882,33.218,33.218v190.63
		C209.992,282.401,195.11,297.283,176.774,297.283z M33.624,53.504c-10.984,0-19.931,8.947-19.931,19.931v190.63
		c0,10.984,8.947,19.931,19.931,19.931h143.149c10.984,0,19.931-8.947,19.931-19.931V73.435c0-10.984-8.947-19.931-19.931-19.931
		H33.624z"/>
	<path fill="#010101" d="M155.824,46.86h-13.287V19.931c0-3.676-2.968-6.644-6.644-6.644H74.505c-3.676,0-6.644,2.968-6.644,6.644
		V46.86H54.574V19.931C54.574,8.947,63.521,0,74.505,0h61.432c10.984,0,19.931,8.947,19.931,19.931V46.86H155.824z"/>
	<g>
		<path fill="#010101" d="M37.788,319.252c-12.313,0-22.367-10.054-22.367-22.367c0-3.499,0.797-6.821,2.347-9.966l11.914,5.935
			c-0.62,1.24-0.93,2.613-0.93,4.031c0,5.005,4.075,9.08,9.08,9.08s9.08-4.075,9.08-9.08c0-1.24-0.266-2.436-0.753-3.588
			l12.224-5.226c1.196,2.79,1.816,5.758,1.816,8.814C60.155,309.198,50.145,319.252,37.788,319.252z"/>
		<path fill="#010101" d="M172.61,319.252c-12.313,0-22.367-10.054-22.367-22.367c0-3.012,0.576-5.935,1.772-8.725l12.224,5.182
			c-0.487,1.107-0.709,2.303-0.709,3.543c0,5.005,4.075,9.08,9.08,9.08s9.08-4.075,9.08-9.08c0-1.417-0.31-2.79-0.93-4.031
			l11.914-5.935c1.55,3.1,2.347,6.467,2.347,9.966C194.976,309.198,184.923,319.252,172.61,319.252z"/>
	</g>
	<g>
		<rect x="7.05" y="76.004" fill="#010101" width="196.299" height="13.287"/>
		<rect x="7.05" y="248.253" fill="#010101" width="196.299" height="13.287"/>
	</g>
</g>
<path d="M169.576,169.836c0,7.53-0.797,14.085-2.436,19.621c-1.595,5.581-3.853,10.143-6.688,13.775
	c-2.835,3.632-6.201,6.334-10.098,8.105c-3.898,1.772-8.061,2.657-12.579,2.657s-8.681-0.886-12.534-2.657
	c-3.853-1.772-7.175-4.473-10.01-8.105c-2.835-3.632-5.049-8.238-6.644-13.775s-2.392-12.092-2.392-19.621
	c0-7.574,0.797-14.129,2.392-19.665s3.809-10.143,6.644-13.775c2.835-3.632,6.156-6.334,10.01-8.105
	c3.853-1.772,8.017-2.657,12.534-2.657s8.681,0.886,12.579,2.657c3.898,1.772,7.264,4.473,10.098,8.105
	c2.835,3.632,5.094,8.194,6.688,13.775S169.576,162.262,169.576,169.836z M154.295,169.836c0-6.245-0.443-11.427-1.373-15.546
	s-2.126-7.397-3.676-9.788c-1.55-2.436-3.277-4.119-5.271-5.093c-1.993-0.974-4.075-1.462-6.201-1.462
	c-2.126,0-4.163,0.487-6.112,1.462c-1.993,0.974-3.72,2.702-5.226,5.093c-1.506,2.436-2.702,5.714-3.632,9.788
	c-0.886,4.119-1.329,9.301-1.329,15.546c0,6.245,0.443,11.427,1.329,15.546s2.082,7.397,3.632,9.788
	c1.506,2.436,3.278,4.119,5.226,5.093c1.993,0.974,4.031,1.462,6.112,1.462c2.17,0,4.208-0.487,6.201-1.462
	c1.993-0.974,3.765-2.702,5.271-5.093c1.55-2.436,2.746-5.714,3.676-9.788C153.852,181.263,154.295,176.081,154.295,169.836z"/>
</svg>
