<?xml version="1.0" encoding="utf-8"?>
<!-- Generator: Adobe Illustrator 17.0.0, SVG Export Plug-In . SVG Version: 6.00 Build 0)  -->
<!DOCTYPE svg PUBLIC "-//W3C//DTD SVG 1.1//EN" "http://www.w3.org/Graphics/SVG/1.1/DTD/svg11.dtd">
<svg version="1.1" id="Layer_1" xmlns="http://www.w3.org/2000/svg" x="0px" y="0px"
     width="209.586px" height="319.251px" viewBox="1029.067 17.539 209.586 319.251"
     enable-background="new 1029.067 17.539 209.586 319.251" xml:space="preserve">
<rect x="956.695" y="0" fill="none" width="354.33" height="354.33"/>
    <g>
	<path d="M1205.435,314.822h-143.149c-18.337,0-33.218-14.882-33.218-33.218V90.974c0-18.337,14.882-33.218,33.218-33.218h143.149
		c18.337,0,33.218,14.882,33.218,33.218v190.63C1238.653,299.94,1223.771,314.822,1205.435,314.822z M1062.285,71.043
		c-10.984,0-19.931,8.947-19.931,19.931v190.63c0,10.984,8.947,19.931,19.931,19.931h143.149c10.984,0,19.931-8.947,19.931-19.931
		V90.974c0-10.984-8.947-19.931-19.931-19.931H1062.285z"/>
        <path d="M1184.485,64.399h-13.287V37.47c0-3.676-2.968-6.644-6.644-6.644h-61.388c-3.676,0-6.644,2.968-6.644,6.644v26.929h-13.287
		V37.47c0-10.984,8.947-19.931,19.931-19.931h61.432c10.984,0,19.931,8.947,19.931,19.931v26.929H1184.485z"/>
        <g>
		<path d="M1066.449,336.791c-12.313,0-22.367-10.054-22.367-22.367c0-3.499,0.797-6.821,2.347-9.966l11.914,5.935
			c-0.62,1.24-0.93,2.613-0.93,4.031c0,5.005,4.075,9.08,9.08,9.08c5.005,0,9.08-4.075,9.08-9.08c0-1.24-0.266-2.436-0.753-3.588
			l12.224-5.226c1.196,2.79,1.816,5.758,1.816,8.814C1088.816,326.737,1078.806,336.791,1066.449,336.791z"/>
            <path d="M1201.271,336.791c-12.313,0-22.367-10.054-22.367-22.367c0-3.012,0.576-5.935,1.772-8.725l12.224,5.182
			c-0.487,1.107-0.709,2.303-0.709,3.543c0,5.005,4.075,9.08,9.08,9.08c5.005,0,9.08-4.075,9.08-9.08c0-1.417-0.31-2.79-0.93-4.031
			l11.914-5.935c1.55,3.1,2.347,6.467,2.347,9.966C1223.638,326.737,1213.584,336.791,1201.271,336.791z"/>
	</g>
        <g>
		<rect x="1035.711" y="93.543" width="196.299" height="13.287"/>
            <rect x="1035.711" y="265.792" width="196.299" height="13.287"/>
	</g>
</g>
    <path d="M1144.047,226.063c-1.284,0-2.569-0.266-3.809-0.753c-3.499-1.462-5.846-4.695-6.068-8.504l-1.727-26.398l-22.721-13.553
	c-3.233-1.949-5.094-5.492-4.784-9.257c0.31-3.765,2.657-6.998,6.201-8.415l24.582-9.788l5.846-25.778
	c0.842-3.676,3.676-6.555,7.352-7.441c3.676-0.886,7.485,0.399,9.921,3.278l16.919,20.33l26.309-2.392
	c3.809-0.31,7.352,1.462,9.345,4.695c1.993,3.233,1.949,7.264-0.089,10.453l-14.129,22.323l10.408,24.316
	c1.506,3.499,0.886,7.441-1.594,10.32c-2.48,2.879-6.289,4.075-9.965,3.145l0,0l-25.645-6.511l-19.887,17.406
	C1148.698,225.221,1146.394,226.063,1144.047,226.063z M1122.477,168.971l18.337,10.94c2.79,1.683,4.606,4.606,4.783,7.84
	l1.373,21.304l16.078-14.04c2.48-2.126,5.802-2.923,8.947-2.126l20.684,5.271l-8.415-19.621c-1.284-2.967-1.019-6.422,0.709-9.168
	l11.383-18.027l-21.26,1.949c-3.278,0.266-6.422-1.019-8.504-3.543l-13.642-16.432l-4.739,20.817
	c-0.709,3.189-2.967,5.802-5.979,6.998L1122.477,168.971z M1199.322,199.842L1199.322,199.842L1199.322,199.842z M1196.488,173.267
	L1196.488,173.267L1196.488,173.267z"/>
    <path d="M1086.291,248.784c-15.236,0-27.638-12.402-27.638-27.638c0-15.236,12.402-27.638,27.638-27.638
	c15.236,0,27.638,12.402,27.638,27.638C1113.929,236.382,1101.527,248.784,1086.291,248.784z M1086.291,206.796
	c-7.928,0-14.35,6.422-14.35,14.35c0,7.928,6.422,14.35,14.35,14.35c7.928,0,14.35-6.422,14.35-14.35
	C1100.642,213.218,1094.175,206.796,1086.291,206.796z"/>
</svg>
