<?xml version="1.0" encoding="utf-8"?>
<!-- Generator: Adobe Illustrator 23.0.3, SVG Export Plug-In . SVG Version: 6.00 Build 0)  -->
<svg version="1.1" id="Layer_1" xmlns="http://www.w3.org/2000/svg" x="0px" y="0px"
  viewBox="0 0 48.7 66.6" style="enable-background:new 0 0 48.7 66.6;" xml:space="preserve">
<style type="text/css">
	.st0{fill:#A5A5A5;}
	.st1{fill:none;}
</style>
  <path class="st0" d="M42,66.6H8.8l4.6-9.5c0.4-0.8,1.3-1.1,2-0.7c0.8,0.4,1.1,1.3,0.7,2l-2.5,5.2h24.9l-0.9-5.4
	c-0.1-0.8,0.4-1.6,1.2-1.7c0.8-0.1,1.6,0.4,1.7,1.2L42,66.6z"/>
  <rect x="-16.7" y="-6.7" class="st1" width="80" height="80"/>
  <g>
	<g>
		<g>
			<path class="st0" d="M41.1,59.5H16.8c-6.8,0-12.5-5.1-13.3-11.9L0,16.7V4.1C0,1.9,1.9,0,4.1,0h4.6c4.1,0,7.5,3.4,7.5,7.5v9.1
				L17.7,29l-3,0.3l-1.4-12.7V7.5c0-2.5-2-4.5-4.5-4.5H4.2C3.5,3,3,3.5,3,4.2v12.4l3.5,30.6c0.6,5.3,5,9.2,10.3,9.2h24.3
				c2.5,0,4.5-2,4.5-4.5v-5c0-0.4-0.3-0.8-0.8-0.8H16.6l-1.1-9.4l3-0.3l0.8,6.8h25.6c2.1,0,3.8,1.7,3.8,3.8v5
				C48.7,56.1,45.3,59.5,41.1,59.5z"/>
		</g>
	</g>
    <path class="st0" d="M40,38.1H13.5c-2.9,0-5.2-2.3-5.2-5.2c0-2.9,2.3-5.2,5.2-5.2H40c2.9,0,5.2,2.3,5.2,5.2S42.9,38.1,40,38.1z
		 M13.5,30.7c-1.2,0-2.2,1-2.2,2.2c0,1.2,1,2.2,2.2,2.2H40c1.2,0,2.2-1,2.2-2.2c0-1.2-1-2.2-2.2-2.2H13.5z"/>
</g>
</svg>
