<?xml version="1.0" encoding="utf-8"?>
<!-- Generator: Adobe Illustrator 17.0.0, SVG Export Plug-In . SVG Version: 6.00 Build 0)  -->
<!DOCTYPE svg PUBLIC "-//W3C//DTD SVG 1.1//EN" "http://www.w3.org/Graphics/SVG/1.1/DTD/svg11.dtd">
<svg version="1.1" id="Layer_1" xmlns="http://www.w3.org/2000/svg" x="0px" y="0px"
     width="209.586px" height="319.251px" viewBox="1029.067 17.539 209.586 319.251"
     enable-background="new 1029.067 17.539 209.586 319.251" xml:space="preserve">
<g>
	<path d="M1080.268,219.552h17.539v-50.403c0-1.949,0.044-4.031,0.177-6.156l-12.446,10.408c-0.531,0.443-1.063,0.753-1.594,0.886
		c-0.531,0.177-1.063,0.221-1.594,0.221c-0.797,0-1.506-0.177-2.17-0.531c-0.664-0.354-1.151-0.709-1.462-1.152l-4.651-6.378
		l26.353-22.411h12.136v75.517h15.546v11.073h-47.835V219.552z"/>
    <path d="M1188.958,150.413c0,2.126-0.664,3.809-1.993,5.138s-3.543,1.993-6.688,1.993h-23.784l-3.1,18.071
		c3.898-0.797,7.485-1.196,10.719-1.196c4.562,0,8.548,0.664,12.003,2.037c3.455,1.373,6.334,3.233,8.681,5.625
		c2.347,2.392,4.119,5.182,5.315,8.415c1.196,3.189,1.772,6.644,1.772,10.364c0,4.606-0.797,8.77-2.436,12.534
		c-1.594,3.765-3.853,7.042-6.732,9.7c-2.879,2.702-6.289,4.783-10.187,6.245c-3.898,1.462-8.194,2.215-12.844,2.215
		c-2.702,0-5.271-0.266-7.707-0.842c-2.436-0.576-4.695-1.284-6.865-2.259c-2.126-0.93-4.119-1.993-5.935-3.233
		c-1.816-1.196-3.455-2.48-4.872-3.853l4.562-6.289c0.974-1.373,2.215-2.037,3.809-2.037c0.974,0,1.993,0.31,3.012,0.974
		c1.019,0.62,2.214,1.329,3.543,2.082c1.373,0.753,2.923,1.462,4.739,2.082c1.772,0.62,3.986,0.974,6.511,0.974
		c2.702,0,5.094-0.443,7.175-1.329c2.082-0.886,3.809-2.082,5.182-3.676c1.373-1.594,2.392-3.455,3.1-5.625
		c0.709-2.17,1.063-4.518,1.063-7.087c0-4.695-1.373-8.371-4.075-11.029c-2.702-2.657-6.732-3.986-12.047-3.986
		c-4.163,0-8.371,0.753-12.623,2.259l-9.213-2.613l7.175-41.988h42.697v6.334H1188.958z"/>
</g>
    <rect x="956.695" y="0" fill="none" width="354.33" height="354.33"/>
    <g>
	<path d="M1205.435,314.822h-143.149c-18.337,0-33.218-14.882-33.218-33.218V90.974c0-18.337,14.882-33.218,33.218-33.218h143.149
		c18.337,0,33.218,14.882,33.218,33.218v190.63C1238.653,299.94,1223.771,314.822,1205.435,314.822z M1062.285,71.043
		c-10.984,0-19.931,8.947-19.931,19.931v190.63c0,10.984,8.947,19.931,19.931,19.931h143.149c10.984,0,19.931-8.947,19.931-19.931
		V90.974c0-10.984-8.947-19.931-19.931-19.931H1062.285z"/>
        <path d="M1184.485,64.399h-13.287V37.47c0-3.676-2.968-6.644-6.644-6.644h-61.388c-3.676,0-6.644,2.968-6.644,6.644v26.929h-13.287
		V37.47c0-10.984,8.947-19.931,19.931-19.931h61.432c10.984,0,19.931,8.947,19.931,19.931v26.929H1184.485z"/>
        <g>
		<path d="M1066.449,336.791c-12.313,0-22.367-10.054-22.367-22.367c0-3.499,0.797-6.821,2.347-9.966l11.914,5.935
			c-0.62,1.24-0.93,2.613-0.93,4.031c0,5.005,4.075,9.08,9.08,9.08c5.005,0,9.08-4.075,9.08-9.08c0-1.24-0.266-2.436-0.753-3.588
			l12.224-5.226c1.196,2.79,1.816,5.758,1.816,8.814C1088.816,326.737,1078.806,336.791,1066.449,336.791z"/>
            <path d="M1201.271,336.791c-12.313,0-22.367-10.054-22.367-22.367c0-3.012,0.576-5.935,1.772-8.725l12.224,5.182
			c-0.487,1.107-0.709,2.303-0.709,3.543c0,5.005,4.075,9.08,9.08,9.08c5.005,0,9.08-4.075,9.08-9.08c0-1.417-0.31-2.79-0.93-4.031
			l11.914-5.935c1.55,3.1,2.347,6.467,2.347,9.966C1223.638,326.737,1213.584,336.791,1201.271,336.791z"/>
	</g>
        <g>
		<rect x="1035.711" y="93.543" width="196.299" height="13.287"/>
            <rect x="1035.711" y="265.792" width="196.299" height="13.287"/>
	</g>
</g>
</svg>
