<?xml version="1.0" encoding="utf-8"?>
<!-- Generator: Adobe Illustrator 23.0.3, SVG Export Plug-In . SVG Version: 6.00 Build 0)  -->
<svg version="1.1" id="Layer_1" xmlns="http://www.w3.org/2000/svg" x="0px" y="0px"
  viewBox="0 0 63 63" style="enable-background:new 0 0 63 63;" xml:space="preserve">
<style type="text/css">
	.st0{fill:#A6A6A6;}
	.st1{fill:none;}
</style>
  <path class="st0" d="M26.8,53.6C12,53.6,0,41.6,0,26.8S12,0,26.8,0s26.8,12,26.8,26.8S41.6,53.6,26.8,53.6z M26.8,3
	C13.7,3,3,13.7,3,26.8s10.7,23.8,23.8,23.8s23.8-10.7,23.8-23.8S39.9,3,26.8,3z"/>
  <path class="st0" d="M57.7,63c-1.4,0-2.8-0.6-3.8-1.6L40.7,48.2c-0.6-0.6-0.6-1.5,0-2.1s1.5-0.6,2.1,0l13.2,13.2
	c0.9,0.9,2.4,0.9,3.3,0c0.4-0.4,0.7-1,0.7-1.6c0-0.6-0.2-1.2-0.7-1.6L46.1,42.9c-0.6-0.6-0.6-1.5,0-2.1s1.5-0.6,2.1,0L61.4,54
	c1,1,1.6,2.3,1.6,3.7s-0.6,2.8-1.6,3.8S59.1,63,57.7,63z"/>
  <path class="st0" d="M16.7,45.1c-0.3,0-0.5-0.1-0.8-0.2C9.5,41,5.7,34.3,5.7,26.8c0-5.1,1.9-10.1,5.2-13.9c0.5-0.6,1.5-0.7,2.1-0.1
	c0.6,0.5,0.7,1.5,0.1,2.1c-2.9,3.3-4.5,7.5-4.5,12c0,6.4,3.3,12.2,8.8,15.5c0.7,0.4,0.9,1.3,0.5,2.1C17.7,44.9,17.2,45.1,16.7,45.1z
	"/>
  <path class="st0" d="M22.3,47.4c-0.1,0-0.2,0-0.3,0c-0.6-0.1-1.2-0.3-1.8-0.5c-0.8-0.3-1.2-1.1-1-1.9c0.3-0.8,1.1-1.2,1.9-1
	c0.5,0.2,1,0.3,1.6,0.4c0.8,0.2,1.3,1,1.1,1.8C23.6,47,23,47.4,22.3,47.4z"/>
  <path class="st0" d="M46.3,53.2c-0.4,0-0.8-0.2-1.1-0.4c-0.6-0.6-0.6-1.5,0-2.1l5.4-5.4c0.6-0.6,1.5-0.6,2.1,0s0.6,1.5,0,2.1
	l-5.4,5.4C47,53,46.7,53.2,46.3,53.2z"/>
  <rect x="-8.5" y="-8.5" class="st1" width="80" height="80"/>
</svg>
