<?xml version="1.0" encoding="utf-8"?>
<!-- Generator: Adobe Illustrator 17.0.0, SVG Export Plug-In . SVG Version: 6.00 Build 0)  -->
<!DOCTYPE svg PUBLIC "-//W3C//DTD SVG 1.1//EN" "http://www.w3.org/Graphics/SVG/1.1/DTD/svg11.dtd">
<svg version="1.1" id="Layer_1" xmlns="http://www.w3.org/2000/svg" x="0px" y="0px"
     width="317.923px" height="260.388px" viewBox="0 0 317.923 260.388" enable-background="new 0 0 317.923 260.388"
     xml:space="preserve">
<g>
	<path fill="#00A64E" d="M311.279,260.441H6.643c-3.676,0-6.644-2.967-6.644-6.644c0-3.677,2.968-6.644,6.644-6.644h304.635
		c3.676,0,6.644,2.967,6.644,6.644C317.923,257.474,314.955,260.441,311.279,260.441z"/>
    <g>
		<path fill="#00A64E" d="M160.158,52.449c-1.373,0-2.746-0.399-3.942-1.284c-2.968-2.17-3.588-6.334-1.417-9.301
			c2.126-2.923,1.772-4.252-1.019-9.921c-0.576-1.152-1.151-2.303-1.683-3.455c-3.1-6.909-4.651-17.495,5.581-28.435
			c2.48-2.702,6.688-2.835,9.39-0.31c2.702,2.525,2.835,6.688,0.31,9.39c-5.625,6.024-4.651,10.63-3.145,13.952
			c0.443,1.019,0.93,1.993,1.417,2.968c2.79,5.581,6.998,14.04-0.177,23.74C164.232,51.519,162.194,52.449,160.158,52.449z"/>
        <path fill="#00A64E" d="M135.619,53.689c-1.373,0-2.746-0.399-3.942-1.284c-2.968-2.17-3.588-6.334-1.417-9.301
			c2.126-2.923,1.772-4.252-1.019-9.921c-0.576-1.107-1.151-2.303-1.683-3.455c-3.1-6.909-4.651-17.495,5.581-28.435
			c2.525-2.702,6.732-2.835,9.39-0.31c2.702,2.525,2.835,6.688,0.31,9.39c-5.581,5.979-4.739,10.408-3.145,13.952
			c0.443,1.019,0.93,1.993,1.417,2.968c2.79,5.581,6.998,14.04-0.177,23.74C139.694,52.759,137.658,53.689,135.619,53.689z"/>
        <path fill="#00A64E" d="M184.606,51.253c-1.373,0-2.746-0.399-3.942-1.284c-2.968-2.17-3.588-6.334-1.417-9.301
			c2.126-2.923,1.772-4.252-1.019-9.921c-0.576-1.107-1.152-2.259-1.683-3.455c-3.1-6.909-4.651-17.495,5.581-28.435
			c2.48-2.702,6.688-2.835,9.39-0.31c2.702,2.525,2.835,6.688,0.31,9.39c-5.581,5.979-4.739,10.408-3.145,13.952
			c0.443,1.019,0.93,1.993,1.417,2.968c2.79,5.581,6.998,14.04-0.177,23.74C188.637,50.323,186.643,51.253,184.606,51.253z"/>
	</g>
    <g>
		<circle fill="#00A64E" cx="158.961" cy="73.222" r="12.712"/>
        <g>
			<path fill="#00A64E" d="M297.548,236.701H20.374v-6.644c0-76.447,62.185-138.587,138.587-138.587s138.587,62.185,138.587,138.587
				V236.701z M33.838,223.413h250.29c-3.499-65.994-58.287-118.656-125.167-118.656C92.081,104.757,37.293,157.419,33.838,223.413z"
            />
            <path fill="#00A64E" d="M64.842,188.733c-1.019,0-2.082-0.221-3.056-0.753c-3.277-1.683-4.562-5.669-2.879-8.947
				c14.926-28.966,41.545-49.916,73.125-57.49c3.543-0.842,7.175,1.329,8.017,4.916c0.842,3.543-1.329,7.175-4.916,8.017
				c-27.771,6.688-51.245,25.113-64.399,50.625C69.538,187.449,67.235,188.733,64.842,188.733z"/>
            <path fill="#00A64E" d="M56.959,208.93c-0.576,0-1.151-0.089-1.727-0.221c-3.543-0.974-5.625-4.606-4.651-8.15
				c0.354-1.24,0.709-2.436,1.063-3.676c1.107-3.499,4.783-5.448,8.327-4.341c3.499,1.107,5.448,4.828,4.341,8.327
				c-0.31,1.063-0.62,2.126-0.93,3.189C62.584,206.981,59.882,208.93,56.959,208.93z"/>
		</g>
	</g>
</g>
    <rect x="-18.204" y="-40.917" fill="none" width="354.33" height="354.33"/>
</svg>
