<?xml version="1.0" encoding="utf-8"?>
<!-- Generator: Adobe Illustrator 17.0.0, SVG Export Plug-In . SVG Version: 6.00 Build 0)  -->
<!DOCTYPE svg PUBLIC "-//W3C//DTD SVG 1.1//EN" "http://www.w3.org/Graphics/SVG/1.1/DTD/svg11.dtd">
<svg version="1.1" id="Layer_1" xmlns="http://www.w3.org/2000/svg" x="0px" y="0px"
     width="326.559px" height="175.836px" viewBox="965.509 89.911 326.559 175.836"
     enable-background="new 965.509 89.911 326.559 175.836" xml:space="preserve">
<g>
	<g>
		<path d="M988.895,157.588c-12.889,0-23.386-11.073-23.386-24.715V95.448c0-3.056,2.48-5.536,5.536-5.536
			c3.056,0,5.536,2.48,5.536,5.536v37.426c0,7.53,5.536,13.642,12.313,13.642c6.777,0,12.313-6.112,12.313-13.642V95.448
			c0-3.056,2.48-5.536,5.536-5.536s5.536,2.48,5.536,5.536v37.426C1012.325,146.515,1001.828,157.588,988.895,157.588z"/>
        <path d="M988.895,265.747c-3.056,0-5.536-2.48-5.536-5.536V95.448c0-3.056,2.48-5.536,5.536-5.536s5.536,2.48,5.536,5.536v164.763
			C994.431,263.267,991.951,265.747,988.895,265.747z"/>
	</g>
    <g>
		<path d="M1286.532,265.747c-3.056,0-5.536-2.48-5.536-5.536V96.954c0-3.056,2.48-5.536,5.536-5.536
			c3.056,0,5.536,2.48,5.536,5.536v163.258C1292.068,263.267,1289.588,265.747,1286.532,265.747z"/>
        <path d="M1292.068,198.292h-34.326v-83.799c0-13.553,11.028-24.582,24.582-24.582h9.744V198.292z M1268.815,187.219h12.18v-86.146
			c-6.821,0.664-12.18,6.422-12.18,13.42V187.219z"/>
	</g>
    <g>
		<path d="M1216.02,265.083h-163.39c-12.844,0-23.253-10.453-23.253-23.253V113.164c0-12.8,10.408-23.253,23.253-23.253h163.39
			c12.8,0,23.253,10.453,23.253,23.253V241.83C1239.273,254.63,1228.865,265.083,1216.02,265.083z M1052.63,100.984
			c-6.732,0-12.18,5.448-12.18,12.18V241.83c0,6.732,5.448,12.18,12.18,12.18h163.39c6.732,0,12.18-5.448,12.18-12.18V113.164
			c0-6.732-5.448-12.18-12.18-12.18H1052.63z"/>
        <path d="M1134.967,237.002h-77.51V117.726h77.51V237.002z M1068.53,225.93h55.364v-97.131h-55.364V225.93z"/>
        <path d="M1204.859,172.293c-1.727,0-3.41-0.62-4.739-1.86l-43.538-40.394c-2.126-1.949-2.79-4.961-1.772-7.618
			c1.063-2.702,3.588-4.429,6.467-4.429h34.99c8.548,0,15.502,6.954,15.502,15.502v31.845c0,2.746-1.639,5.271-4.163,6.378
			C1206.719,172.116,1205.789,172.293,1204.859,172.293z M1171.818,129.065l28.922,26.796v-22.367c0-2.436-1.993-4.429-4.429-4.429
			H1171.818z M1164.067,121.934L1164.067,121.934C1164.111,121.934,1164.111,121.934,1164.067,121.934z"/>
        <path d="M1178.86,240.236c-17.761,0-32.2-14.439-32.2-32.2s14.439-32.2,32.2-32.2c17.761,0,32.2,14.439,32.2,32.2
			S1196.621,240.236,1178.86,240.236z M1178.86,186.953c-11.649,0-21.127,9.478-21.127,21.127c0,11.649,9.478,21.127,21.127,21.127
			c11.649,0,21.127-9.478,21.127-21.127C1199.987,196.432,1190.509,186.953,1178.86,186.953z"/>
	</g>
    <rect x="956.695" y="0" fill="none" width="354.33" height="354.33"/>
</g>
</svg>
