<?xml version="1.0" encoding="utf-8"?>
<!-- Generator: Adobe Illustrator 24.0.1, SVG Export Plug-In . SVG Version: 6.00 Build 0)  -->
<svg version="1.1" id="레이어_1" xmlns="http://www.w3.org/2000/svg" xmlns:xlink="http://www.w3.org/1999/xlink" x="0px"
	 y="0px" viewBox="0 0 61.6 63.9" style="enable-background:new 0 0 61.6 63.9;" xml:space="preserve">
<style type="text/css">
	.st0{fill:none;}
</style>
<path d="M30.5,30.4c0.2,0.4,0.3,0.7,0.5,1.1c0.2-0.4,0.3-0.8,0.5-1.1c0.2-0.4,0.3-0.7,0.5-1.1l6.9-12.8c0.1-0.2,0.2-0.3,0.3-0.4
	c0.1-0.1,0.2-0.2,0.3-0.2s0.2-0.1,0.4-0.1s0.3,0,0.5,0h3.2V39h-3.8V24c0-0.3,0-0.6,0-0.9c0-0.3,0-0.7,0.1-1l-7,13.1
	c-0.2,0.3-0.4,0.5-0.6,0.7c-0.3,0.2-0.6,0.2-0.9,0.2h-0.6c-0.3,0-0.6-0.1-0.9-0.2s-0.5-0.4-0.6-0.7L22,22.1c0,0.4,0.1,0.7,0.1,1
	c0,0.3,0,0.6,0,0.9V39h-3.8V15.8h3.2c0.2,0,0.4,0,0.5,0s0.3,0,0.4,0.1s0.2,0.1,0.3,0.2c0.1,0.1,0.2,0.2,0.3,0.4L30,29.4
	C30.2,29.7,30.3,30.1,30.5,30.4z"/>
<path d="M0.6,27h3v9.8h-3V27z"/>
<path d="M31.1,54.3c-16.8,0-30.5-12.2-30.5-27.2S14.3,0,31.1,0s30.5,12.2,30.5,27.2C61.6,42.1,47.9,54.3,31.1,54.3z M31.1,3
	C15.9,3,3.6,13.8,3.6,27.2s12.3,24.2,27.5,24.2s27.5-10.8,27.5-24.2S46.3,3,31.1,3z"/>
<path d="M31.1,63.9c-16.8,0-30.5-12.2-30.5-27.2h3c0,13.3,12.3,24.2,27.5,24.2s27.5-10.8,27.5-24.2h3C61.6,51.8,47.9,63.9,31.1,63.9
	z"/>
<path d="M7,43.2h3v9.6H7L7,43.2z"/>
<path d="M14.5,49.1h3v9.6h-3V49.1z"/>
<path d="M22.1,51.9h3v9.6h-3V51.9z"/>
<path d="M29.6,52.8h3v9.6h-3V52.8z"/>
<path d="M37.1,51.9h3v9.6h-3V51.9z"/>
<path d="M44.7,49.1h3v9.6h-3V49.1z"/>
<path d="M52.2,43.2h3v9.6h-3L52.2,43.2z"/>
<path d="M58.6,27h3v9.8h-3V27z"/>
<path class="st0" d="M-8.9-7.5h80v80h-80V-7.5z"/>
</svg>
