<?xml version="1.0" encoding="utf-8"?>
<!-- Generator: Adobe Illustrator 17.0.0, SVG Export Plug-In . SVG Version: 6.00 Build 0)  -->
<!DOCTYPE svg PUBLIC "-//W3C//DTD SVG 1.1//EN" "http://www.w3.org/Graphics/SVG/1.1/DTD/svg11.dtd">
<svg version="1.1" id="Layer_1" xmlns="http://www.w3.org/2000/svg" x="0px" y="0px"
     width="270.088px" height="283.198px" viewBox="998.816 33.218 270.088 283.198"
     enable-background="new 998.816 33.218 270.088 283.198" xml:space="preserve">
<g>
	<path fill="none" stroke="#000000" stroke-width="3" stroke-miterlimit="10" d="M1005.46,152.893"/>
    <rect x="998.816" y="152.893" width="13.287" height="43.228"/>
    <path d="M1133.86,273.808c-74.454,0-135.044-53.947-135.044-120.295s60.59-120.295,135.044-120.295s135.044,53.947,135.044,120.295
		C1268.904,219.817,1208.314,273.808,1133.86,273.808z M1133.86,46.506c-67.146,0-121.757,48.012-121.757,107.008
		s54.611,107.008,121.757,107.008s121.757-48.012,121.757-107.008S1201.005,46.506,1133.86,46.506z"/>
    <path d="M1133.86,316.417c-74.454,0-135.044-53.947-135.044-120.295h13.287c0,58.996,54.611,107.008,121.757,107.008
		s121.757-48.012,121.757-107.008h13.287C1268.904,262.426,1208.314,316.417,1133.86,316.417z"/>
    <rect x="1026.985" y="224.512" width="13.287" height="42.608"/>
    <rect x="1060.381" y="250.556" width="13.287" height="42.608"/>
    <rect x="1093.821" y="263.267" width="13.287" height="42.608"/>
    <rect x="1127.216" y="267.165" width="13.287" height="42.608"/>
    <rect x="1160.612" y="263.267" width="13.287" height="42.608"/>
    <rect x="1194.052" y="250.556" width="13.287" height="42.608"/>
    <rect x="1227.447" y="224.557" width="13.287" height="42.608"/>
    <rect x="1255.617" y="152.893" width="13.287" height="43.228"/>
    <g>
		<path d="M1125.843,173.179v39.419h-20.861V100.541h36.496c7.485,0,13.996,0.886,19.444,2.613
			c5.492,1.772,10.01,4.208,13.553,7.352s6.201,6.909,7.928,11.294c1.683,4.385,2.569,9.213,2.569,14.395
			c0,5.404-0.886,10.408-2.702,14.926c-1.816,4.518-4.518,8.415-8.15,11.649c-3.632,3.233-8.15,5.802-13.553,7.574
			c-5.404,1.816-11.781,2.702-19.045,2.702h-15.679V173.179z M1125.843,156.88h15.679c3.809,0,7.175-0.487,10.01-1.417
			c2.835-0.974,5.182-2.303,7.042-4.119c1.86-1.772,3.278-3.942,4.208-6.511c0.93-2.569,1.417-5.404,1.417-8.548
			c0-3.012-0.487-5.714-1.417-8.15c-0.93-2.436-2.348-4.473-4.208-6.201s-4.208-3.012-7.042-3.898
			c-2.835-0.886-6.156-1.373-10.01-1.373h-15.679V156.88z"/>
	</g>
</g>
    <rect x="956.695" y="0" fill="none" width="354.33" height="354.33"/>
</svg>
