<?xml version="1.0" encoding="utf-8"?>
<!-- Generator: Adobe Illustrator 23.0.3, SVG Export Plug-In . SVG Version: 6.00 Build 0)  -->
<svg version="1.1" id="Layer_1" xmlns="http://www.w3.org/2000/svg" x="0px" y="0px"
  viewBox="0 0 63.8 57.2" style="enable-background:new 0 0 63.8 57.2;" xml:space="preserve">
<style type="text/css">
	.st0{fill:#2FB66F;}
	.st1{fill:none;}
</style>
  <path class="st0" d="M35.4,25.5c-7,0-12.8-5.7-12.8-12.8S28.4,0,35.4,0s12.8,5.7,12.8,12.8S42.4,25.5,35.4,25.5z M35.4,3
	c-5.4,0-9.8,4.4-9.8,9.8s4.4,9.8,9.8,9.8s9.8-4.4,9.8-9.8S40.8,3,35.4,3z"/>
  <path class="st0" d="M59.1,57.2H11.9c-1.4,0-2.8-0.6-3.7-1.6c-0.8-0.9-1.1-2-1-3.2c1.7-12.7,13.3-21.6,28.3-21.6s26.6,8.9,28.3,21.6
	c0.2,1.2-0.2,2.3-1,3.2C61.8,56.6,60.5,57.2,59.1,57.2z M35.5,33.8c-11,0-23.6,5.9-25.3,19c0,0.4,0.1,0.6,0.3,0.8
	c0.3,0.4,0.9,0.6,1.4,0.6h47.2c0.6,0,1.1-0.2,1.4-0.6c0.2-0.2,0.3-0.5,0.3-0.8C59,39.7,46.5,33.8,35.5,33.8z"/>
  <g>
	<path class="st0" d="M19.2,24.5H1.5C0.7,24.5,0,23.8,0,23s0.7-1.5,1.5-1.5h17.7c0.8,0,1.5,0.7,1.5,1.5S20.1,24.5,19.2,24.5z"/>
    <path class="st0" d="M10.4,33.3c-0.8,0-1.5-0.7-1.5-1.5V14.1c0-0.8,0.7-1.5,1.5-1.5s1.5,0.7,1.5,1.5v17.7
		C11.9,32.7,11.2,33.3,10.4,33.3z"/>
</g>
  <rect x="-6.9" y="-10.8" class="st1" width="80" height="80"/>
</svg>
