<?xml version="1.0" encoding="utf-8"?>
<!-- Generator: Adobe Illustrator 17.0.0, SVG Export Plug-In . SVG Version: 6.00 Build 0)  -->
<!DOCTYPE svg PUBLIC "-//W3C//DTD SVG 1.1//EN" "http://www.w3.org/Graphics/SVG/1.1/DTD/svg11.dtd">
<svg version="1.1" id="Layer_1" xmlns="http://www.w3.org/2000/svg" x="0px" y="0px"
     width="275.89px" height="279.046px" viewBox="994.918 24.305 275.89 279.046"
     enable-background="new 994.918 24.305 275.89 279.046" xml:space="preserve">
<g>
	<path d="M1252.118,303.351h-81.983c-3.676,0-6.644-2.967-6.644-6.644c0-3.676,2.968-6.644,6.644-6.644h69.803l16.388-191.072
		h-96.51l5.138,59.793c0.31,3.676-2.392,6.865-6.068,7.175c-3.632,0.31-6.865-2.392-7.175-6.068l-6.334-74.188h125.433
		L1252.118,303.351z"/>
    <path d="M1208.048,133.361c-3.676,0-6.644-2.968-6.644-6.644V61.831l35.566-35.566c2.613-2.613,6.821-2.613,9.39,0
		c2.569,2.613,2.613,6.821,0,9.39l-31.668,31.668v59.395C1214.692,130.393,1211.724,133.361,1208.048,133.361z"/>
    <path d="M1260.577,133.361h-105.015c-3.676,0-6.644-2.968-6.644-6.644s2.967-6.644,6.644-6.644h105.059
		c3.676,0,6.644,2.968,6.644,6.644S1264.253,133.361,1260.577,133.361z"/>
    <path d="M1198.038,227.613h-188.459v-6.644c0-48.898,38.755-82.913,94.252-82.913s94.252,34.06,94.252,82.78v6.777H1198.038z
		 M1023.132,214.325h161.353c-3.499-43.45-42.254-62.982-80.699-62.982S1026.631,170.876,1023.132,214.325z"/>
    <path d="M1168.053,303.351h-128.445c-16.565,0-29.985-13.465-29.985-29.985v-17.584c0-3.676,2.967-6.644,6.644-6.644
		c3.676,0,6.644,2.967,6.644,6.644v17.584c0,9.213,7.485,16.698,16.698,16.698h128.445c9.213,0,16.698-7.485,16.698-16.698v-17.584
		c0-3.676,2.968-6.644,6.644-6.644c3.676,0,6.644,2.967,6.644,6.644v17.584C1198.038,289.93,1184.618,303.351,1168.053,303.351z"/>
    <path d="M1185.769,262.426h-103.73c-3.676,0-6.644-2.967-6.644-6.644c0-3.676,2.968-6.644,6.644-6.644h103.73
		c7.53,0,13.686-4.828,13.686-10.763s-6.112-10.763-13.686-10.763h-163.878c-7.53,0-13.686,4.828-13.686,10.763
		s6.112,10.763,13.686,10.763h17.672c3.676,0,6.644,2.967,6.644,6.644c0,3.676-2.968,6.644-6.644,6.644h-17.672
		c-14.882,0-26.973-10.807-26.973-24.05c0-13.243,12.091-24.05,26.973-24.05h163.878c14.882,0,26.973,10.807,26.973,24.05
		C1212.743,251.619,1200.607,262.426,1185.769,262.426z"/>
    <path d="M1060.779,286.387l-25.91-25.91c-2.613-2.613-2.613-6.821,0-9.39s6.821-2.613,9.39,0l16.521,16.521l16.521-16.521
		c2.613-2.613,6.821-2.613,9.39,0c2.569,2.613,2.613,6.821,0,9.39L1060.779,286.387z"/>
    <circle cx="1205.435" cy="158.518" r="6.644"/>
    <circle cx="1224.878" cy="180.177" r="6.644"/>
    <circle cx="1235.021" cy="151.299" r="6.644"/>
</g>
    <rect x="956.695" y="0" fill="none" width="354.33" height="354.33"/>
    <rect x="956.695" y="0" fill="none" width="354.33" height="354.33"/>
</svg>
