<?xml version="1.0" encoding="utf-8"?>
<!-- Generator: Adobe Illustrator 23.0.3, SVG Export Plug-In . SVG Version: 6.00 Build 0)  -->
<svg version="1.1" id="Layer_1" xmlns="http://www.w3.org/2000/svg" x="0px" y="0px"
  viewBox="0 0 63 63" style="enable-background:new 0 0 63 63;" xml:space="preserve">
<style type="text/css">
	.st0{fill:#A6A6A6;}
	.st1{fill:none;}
</style>
  <path class="st0" d="M42.2,63c-0.8,0-1.5-0.2-2.2-0.5l-8.5-3.7L23,62.5c-1.4,0.6-3,0.6-4.4,0c-1.4-0.6-2.5-1.7-3.1-3.1l-3.4-8.6
	l-8.6-3.4c-1.4-0.6-2.5-1.7-3.1-3.1c-0.6-1.4-0.6-3,0-4.4l3.7-8.5L0.5,23c-0.6-1.4-0.6-3,0-4.4c0.6-1.4,1.7-2.5,3.1-3.1l8.6-3.4
	l3.4-8.6c0.6-1.4,1.6-2.5,3.1-3.1c1.4-0.6,3-0.6,4.4,0l8.5,3.7L40,0.5c1.4-0.6,3-0.6,4.4,0c1.4,0.6,2.5,1.7,3.1,3.1l3.4,8.6l8.6,3.4
	c1.4,0.6,2.5,1.6,3.1,3.1c0.6,1.4,0.6,3,0,4.4l-3.7,8.5l3.7,8.5c0.6,1.4,0.6,3,0,4.4c-0.6,1.4-1.7,2.5-3.1,3.1l-8.6,3.4l-3.4,8.6
	c-0.6,1.4-1.7,2.5-3.1,3.1C43.7,62.9,43,63,42.2,63z M31.5,55.6l9.7,4.2c0.7,0.3,1.4,0.3,2,0c0.7-0.3,1.2-0.8,1.4-1.4l3.9-9.8
	l9.8-3.9c0.7-0.3,1.2-0.8,1.4-1.4c0.3-0.7,0.3-1.4,0-2l-4.2-9.7l4.2-9.7c0.3-0.6,0.3-1.4,0-2c-0.3-0.7-0.8-1.2-1.4-1.4l-9.8-3.9
	l-3.9-9.8c-0.3-0.7-0.8-1.2-1.4-1.4c-0.7-0.3-1.4-0.3-2,0l-9.7,4.2l-9.7-4.2c-0.6-0.3-1.4-0.3-2,0c-0.7,0.3-1.2,0.8-1.4,1.4
	l-3.9,9.8l-9.8,3.9c-0.7,0.3-1.2,0.8-1.4,1.4c-0.3,0.7-0.3,1.4,0,2l4.2,9.7l-4.2,9.7c-0.3,0.7-0.3,1.4,0,2c0.3,0.7,0.8,1.2,1.4,1.4
	l9.8,3.9l3.9,9.8c0.3,0.7,0.8,1.2,1.4,1.4c0.7,0.3,1.4,0.3,2,0L31.5,55.6z"/>
  <g>
	<path class="st0" d="M21.3,45.2c-0.3,0-0.7-0.1-1-0.3c-0.6-0.5-0.7-1.5-0.2-2.1l20.4-24.3c0.5-0.6,1.5-0.7,2.1-0.2
		c0.6,0.5,0.7,1.5,0.2,2.1L22.5,44.6C22.2,45,21.8,45.2,21.3,45.2z"/>
    <path class="st0" d="M24.5,29.5c-3.5,0-6.4-2.9-6.4-6.4s2.9-6.4,6.4-6.4s6.4,2.9,6.4,6.4S28,29.5,24.5,29.5z M24.5,19.8
		c-1.9,0-3.4,1.5-3.4,3.4c0,1.9,1.5,3.4,3.4,3.4s3.4-1.5,3.4-3.4C27.9,21.3,26.3,19.8,24.5,19.8z"/>
    <path class="st0" d="M38.5,46.3c-3.5,0-6.4-2.9-6.4-6.4s2.9-6.4,6.4-6.4s6.4,2.9,6.4,6.4S42.1,46.3,38.5,46.3z M38.5,36.5
		c-1.9,0-3.4,1.5-3.4,3.4c0,1.9,1.5,3.4,3.4,3.4s3.4-1.5,3.4-3.4C41.9,38,40.4,36.5,38.5,36.5z"/>
</g>
  <rect x="-8.5" y="-8.5" class="st1" width="80" height="80"/>
</svg>
