<?xml version="1.0" encoding="utf-8"?>
<!-- Generator: Adobe Illustrator 17.0.0, SVG Export Plug-In . SVG Version: 6.00 Build 0)  -->
<!DOCTYPE svg PUBLIC "-//W3C//DTD SVG 1.1//EN" "http://www.w3.org/Graphics/SVG/1.1/DTD/svg11.dtd">
<svg version="1.1" id="Layer_1" xmlns="http://www.w3.org/2000/svg" x="0px" y="0px"
     width="288.513px" height="210.561px" viewBox="989.603 71.885 288.513 210.561"
     enable-background="new 989.603 71.885 288.513 210.561" xml:space="preserve">
<path d="M1254.864,282.445h-242.007c-12.844,0-23.253-10.453-23.253-23.253V95.138c0-12.8,10.408-23.253,23.253-23.253h242.007
	c12.8,0,23.253,10.453,23.253,23.253v164.055C1278.117,272.037,1267.664,282.445,1254.864,282.445z M1012.856,82.957
	c-6.732,0-12.18,5.448-12.18,12.18v164.055c0,6.732,5.448,12.18,12.18,12.18h242.007c6.732,0,12.18-5.448,12.18-12.18V95.138
	c0-6.732-5.448-12.18-12.18-12.18H1012.856z"/>
    <path d="M1106.178,225.132v-95.935l83.046,47.967L1106.178,225.132z M1117.251,148.376v57.579l49.828-28.789L1117.251,148.376z"/>
    <rect x="1031.237" y="77.421" width="11.073" height="199.488"/>
    <rect x="1225.41" y="77.421" width="11.073" height="199.488"/>
    <rect x="956.695" y="0" fill="none" width="354.33" height="354.33"/>
</svg>
