<?xml version="1.0" encoding="utf-8"?>
<!-- Generator: Adobe Illustrator 17.0.0, SVG Export Plug-In . SVG Version: 6.00 Build 0)  -->
<!DOCTYPE svg PUBLIC "-//W3C//DTD SVG 1.1//EN" "http://www.w3.org/Graphics/SVG/1.1/DTD/svg11.dtd">
<svg version="1.1" id="Layer_1" xmlns="http://www.w3.org/2000/svg" x="0px" y="0px"
     width="313.67px" height="275.544px" viewBox="978.841 38.171 313.67 275.544"
     enable-background="new 978.841 38.171 313.67 275.544" xml:space="preserve">
<path fill="#FFFFFF" d="M1081.109,313.715c-7.397,0-14.306-3.41-18.912-9.567c-5.625-7.53-6.334-17.362-1.816-25.6l40.969-74.852
	h-69.316c-23.12,0-42.918-17.274-46.063-40.172l-6.954-50.581c-0.886-6.467,1.594-12.844,6.599-17.008
	c5.005-4.208,11.693-5.448,17.894-3.455c4.562,1.462,8.327,4.606,10.63,8.814l17.008,30.871h225.62
	c19.71,0,35.743,16.033,35.743,35.743s-16.033,35.743-35.743,35.743h-61.033l-97.264,102.623c-3.322,3.499-7.53,5.846-12.224,6.865
	C1084.52,313.493,1082.792,313.715,1081.109,313.715z M997.664,104.837c-1.727,0-2.968,0.842-3.499,1.284
	c-0.709,0.576-2.303,2.259-1.949,5.005l6.909,50.536c2.259,16.343,16.388,28.701,32.908,28.701h91.771l-51.732,94.518
	c-2.037,3.676-1.727,7.928,0.797,11.294c2.525,3.366,6.467,4.872,10.586,3.986c2.082-0.443,3.942-1.506,5.404-3.012l101.161-106.742
	h66.791c12.402,0,22.456-10.098,22.456-22.456c0-12.357-10.098-22.456-22.456-22.456h-233.459l-20.817-37.736
	c-0.664-1.24-1.772-2.17-3.145-2.569C998.772,104.926,998.196,104.837,997.664,104.837z"/>
    <path d="M1189.047,145.452c-1.905,0-3.853-0.842-5.138-2.436l-72.771-89.025c-0.886-1.107-2.082-1.86-3.41-2.259
	c-2.525-0.709-5.138,0-6.954,1.993c-1.816,1.993-2.259,4.651-1.284,7.131l30.118,75.472c1.373,3.41-0.31,7.264-3.72,8.637
	c-3.41,1.329-7.264-0.31-8.637-3.72l-30.118-75.472c-2.879-7.175-1.417-15.192,3.765-20.95c5.182-5.714,13.022-7.972,20.418-5.891
	c3.986,1.107,7.441,3.41,10.054,6.599l72.771,89.025c2.303,2.835,1.905,7.042-0.93,9.345
	C1192.014,144.965,1190.509,145.452,1189.047,145.452z"/>
    <path fill="#FFFFFF" d="M1189.047,145.452c-1.905,0-3.853-0.842-5.138-2.436l-72.771-89.025c-0.886-1.107-2.082-1.86-3.41-2.259
	c-2.525-0.709-5.138,0-6.954,1.993c-1.816,1.993-2.259,4.651-1.284,7.131l30.118,75.472c1.373,3.41-0.31,7.264-3.72,8.637
	c-3.41,1.329-7.264-0.31-8.637-3.72l-30.118-75.472c-2.879-7.175-1.417-15.192,3.765-20.95c5.182-5.714,13.022-7.972,20.418-5.891
	c3.986,1.107,7.441,3.41,10.054,6.599l72.771,89.025c2.303,2.835,1.905,7.042-0.93,9.345
	C1192.014,144.965,1190.509,145.452,1189.047,145.452z"/>
    <rect x="956.695" y="0" fill="none" width="354.33" height="354.33"/>
    <g>
	<path fill="#FFFFFF" d="M1124.515,173.489h-10.896c-3.676,0-6.644-2.968-6.644-6.644s2.968-6.644,6.644-6.644h10.896
		c3.676,0,6.644,2.968,6.644,6.644S1128.191,173.489,1124.515,173.489z"/>
        <path fill="#FFFFFF" d="M1161.764,173.489h-10.896c-3.676,0-6.644-2.968-6.644-6.644s2.968-6.644,6.644-6.644h10.896
		c3.676,0,6.644,2.968,6.644,6.644S1165.44,173.489,1161.764,173.489z"/>
        <path fill="#FFFFFF" d="M1198.968,173.489h-10.896c-3.676,0-6.644-2.968-6.644-6.644s2.968-6.644,6.644-6.644h10.896
		c3.676,0,6.644,2.968,6.644,6.644S1202.644,173.489,1198.968,173.489z"/>
</g>
</svg>
