<?xml version="1.0" encoding="utf-8"?>
<!-- Generator: Adobe Illustrator 17.0.0, SVG Export Plug-In . SVG Version: 6.00 Build 0)  -->
<!DOCTYPE svg PUBLIC "-//W3C//DTD SVG 1.1//EN" "http://www.w3.org/Graphics/SVG/1.1/DTD/svg11.dtd">
<svg version="1.1" id="Layer_1" xmlns="http://www.w3.org/2000/svg" x="0px" y="0px"
     width="215.477px" height="294.891px" viewBox="1030.573 29.719 215.477 294.891"
     enable-background="new 1030.573 29.719 215.477 294.891" xml:space="preserve">
<path d="M1216.729,324.611h-147.224l20.285-41.9c1.594-3.322,5.581-4.695,8.858-3.1c3.322,1.595,4.695,5.581,3.1,8.858
	l-11.029,22.81h110.374l-3.853-23.829c-0.576-3.632,1.86-7.042,5.492-7.618c3.632-0.576,7.042,1.86,7.618,5.492L1216.729,324.611z"
/>
    <rect x="956.695" y="0" fill="none" width="354.33" height="354.33"/>
    <g>
	<g>
		<g>
			<path d="M1212.787,293.075h-107.761c-30.251,0-55.586-22.633-58.996-52.707l-15.458-136.816V48.1
				c0-10.143,8.238-18.381,18.381-18.381h20.374c18.337,0,33.218,14.926,33.218,33.218v40.261l6.245,54.965l-13.199,1.506
				l-6.289-56.073V62.982c0-10.984-8.947-19.931-19.931-19.931h-20.374c-2.79,0-5.094,2.303-5.094,5.093v55.054l15.369,135.664
				c2.657,23.297,22.323,40.881,45.797,40.881h107.761c10.984,0,19.931-8.947,19.931-19.931v-22.101c0-1.86-1.506-3.366-3.366-3.366
				h-125.344l-4.739-41.678l13.199-1.506l3.41,29.897h113.474c9.168,0,16.654,7.485,16.654,16.654v22.101
				C1246.05,278.149,1231.124,293.075,1212.787,293.075z"/>
		</g>
	</g>
        <path d="M1207.738,198.558h-117.46c-12.756,0-23.164-10.364-23.164-23.164c0-12.756,10.364-23.164,23.164-23.164h117.46
		c12.756,0,23.164,10.364,23.164,23.164S1220.494,198.558,1207.738,198.558z M1090.277,165.561c-5.448,0-9.877,4.429-9.877,9.877
		s4.429,9.877,9.877,9.877h117.46c5.448,0,9.877-4.429,9.877-9.877s-4.429-9.877-9.877-9.877H1090.277z"/>
</g>
</svg>
