<?xml version="1.0" encoding="utf-8"?>
<svg version="1.1" id="Layer_1" xmlns="http://www.w3.org/2000/svg" x="0px" y="0px"
     viewBox="-196.8 306.8 180 180" style="enable-background:new -196.8 306.8 180 180;" xml:space="preserve">
<style type="text/css">
	.st0{fill:#BDD531;}
	.st1{fill:#7C174A;}
	.st2{fill:#29ABE2;}
</style>
    <rect x="-196.8" y="306.8" class="st0" width="180" height="180"/>
    <g>
	<path class="st1" d="M-166.9,426v20.5h-14.9c-0.6,0-1-0.5-1-1v-5h-6.1v9c0,1.7,1.4,3.1,3.1,3.1h25.1V426H-166.9z"/>
        <rect x="-152.9" y="426" class="st1" width="6.1" height="26.6"/>
        <rect x="-66.7" y="426" class="st2" width="6.1" height="26.6"/>
        <path class="st1"
              d="M-113.9,426h-25v26.6h6.1v-20.5h14.9c0.6,0,1,0.5,1,1v19.4h6.1v-23.4C-110.7,427.4-112.1,426-113.9,426"/>
        <path class="st2" d="M-99.7,426c-1.7,0-3.1,1.4-3.1,3.1v23.4h6.1v-8.3h16v8.3h6.1V426H-99.7z M-80.8,432.1v6.1h-16v-5
		c0-0.6,0.5-1,1.1-1H-80.8z"/>
        <path class="st2"
              d="M-27.7,426h-25.1v26.6h6.1v-20.5h14.9c0.6,0,1,0.5,1,1v5h6.1v-9C-24.5,427.4-25.9,426-27.7,426"/>
        <path class="st2" d="M-118.5,377.2l2.1-1.5l6-4.2c0-0.2,0-0.3,0-0.5V371c0-0.6,0-1.1,0-1.7c0-3.2,0.3-6.3,0.8-9.3
		c0.1-0.3,0.1-0.6,0.2-0.9c0.1-0.3,0.1-0.6,0.2-1c-0.4-0.3-0.8-0.6-1.2-0.9c-7.8-5.8-16.5-10.5-25.8-13.9c-0.3-0.1-0.6-0.2-0.9-0.3
		c-0.1-0.1-0.3-0.1-0.4-0.1c-3-1-6.1-1.7-9.4-1.8c0,0-0.1,0-0.1,0c-0.1,0-0.2,0-0.3,0c-3.6,0-6.6,2.6-7.2,6.1c0,0.2-0.1,0.3-0.1,0.5
		c-0.3,2.6-0.5,5.3-0.5,8c0,5.1,0.6,10.1,1.8,14.9c0,0,0,0.1,0,0.2c0,0,0,0.1,0,0.1c1.3,5.2,4.5,9.8,8.8,12.8
		c3.2,2.3,7.1,3.8,11.2,4.1L-118.5,377.2z"/>
        <path class="st2" d="M-113.3,399.1l4.9-3.3l0.2-0.1l-0.1-1l-0.8-5.6l-0.1-0.5l-1.1-7.7l-2.6,1.1l-5.5,2.3l-2.3,0.9l-11.6,4.8
		c-2,1.8-3.6,4.1-4.6,6.7c0,0.1-0.1,0.2-0.1,0.3c0,0.1-0.1,0.1-0.1,0.2c-0.1,0.2-0.2,0.5-0.2,0.7c-0.1,0.3-0.2,0.7-0.3,1.1
		c-0.3,1.4-0.3,2.8-0.2,4.2c0.2,1.2,0.5,2.5,1.1,3.6c2.7,5.8,9.3,8.5,15.2,6.4c0.1,0,0.1,0,0.2-0.1c0.1,0,0.2-0.1,0.3-0.1
		c0.1,0,0.1,0,0.2-0.1c0.6-0.2,1.2-0.5,1.8-0.8c4.5-2.4,7.9-6.4,9.5-11.1l-3.7,0.6l-1.4,0.2v-1.9L-113.3,399.1z"/>
        <path class="st1" d="M-94.9,377.2l-2.1-1.5l-6-4.2c0-0.2,0-0.3,0-0.5V371c0-0.6,0-1.1,0-1.7c0-3.2-0.3-6.3-0.8-9.3
		c-0.1-0.3-0.1-0.6-0.2-0.9c-0.1-0.3-0.1-0.6-0.2-1c0.4-0.3,0.8-0.6,1.2-0.9c7.8-5.8,16.5-10.5,25.8-13.9c0.3-0.1,0.6-0.2,0.9-0.3
		c0.1-0.1,0.3-0.1,0.4-0.1c3-1,6.1-1.7,9.4-1.8c0,0,0.1,0,0.1,0c0.1,0,0.2,0,0.3,0c3.6,0,6.6,2.6,7.2,6.1c0,0.2,0.1,0.3,0.1,0.5
		c0.3,2.6,0.5,5.3,0.5,8c0,5.1-0.6,10.1-1.8,14.9c0,0,0,0.1,0,0.2c0,0,0,0.1,0,0.1c-1.3,5.2-4.5,9.8-8.8,12.8
		c-3.2,2.3-7.1,3.8-11.2,4.1L-94.9,377.2z"/>
        <path class="st1" d="M-100.1,399.1l-4.9-3.3l-0.2-0.1l0.1-1l0.8-5.6l0.1-0.5l1.1-7.7l2.6,1.1l5.5,2.3l2.3,0.9l11.6,4.8
		c2,1.8,3.6,4.1,4.6,6.7c0,0.1,0.1,0.2,0.1,0.3c0,0.1,0.1,0.1,0.1,0.2c0.1,0.2,0.2,0.5,0.2,0.7c0.1,0.3,0.2,0.7,0.3,1.1
		c0.3,1.4,0.3,2.8,0.2,4.2c-0.2,1.2-0.5,2.5-1.1,3.6c-2.7,5.8-9.3,8.5-15.2,6.4c-0.1,0-0.1,0-0.2-0.1c-0.1,0-0.2-0.1-0.3-0.1
		c-0.1,0-0.1,0-0.2-0.1c-0.6-0.2-1.2-0.5-1.8-0.8c-4.5-2.4-7.9-6.4-9.5-11.1l3.7,0.6l1.4,0.2v-1.9L-100.1,399.1z"/>
</g>
</svg>
