<?xml version="1.0" encoding="utf-8"?>
<!-- Generator: Adobe Illustrator 23.0.1, SVG Export Plug-In . SVG Version: 6.00 Build 0)  -->
<svg version="1.1" id="Layer_1" xmlns="http://www.w3.org/2000/svg" x="0px" y="0px"
     viewBox="0 0 70 70" style="enable-background:new 0 0 70 70;" xml:space="preserve">
<style type="text/css">
	.st0{fill:none;}
	.st1{fill:#04675B;}
</style>
    <rect class="st0" width="70" height="70"/>
    <path class="st1" d="M30.5,31.7c-0.2,0-0.4-0.3-0.5-0.4L29.9,31c0,0,0.2,0,0.3,0.1C30.4,31.2,30.5,31.4,30.5,31.7
	C30.6,31.7,30.6,31.7,30.5,31.7 M26.1,29.2c-0.1,0-0.4-0.3-0.5-0.5c-0.2-0.2-0.3-0.5-0.5-0.7s-0.3-0.4-0.4-0.7v-0.2
	c0.2,0,0.3,0.3,0.4,0.4s0.1,0.2,0.2,0.3c0.1,0.1,0.1,0.3,0.2,0.4s0.2,0.3,0.3,0.4c0.1,0.1,0.1,0.1,0.2,0.3
	C26.1,29,26.1,29.2,26.1,29.2 M24.8,29.2c-0.1,0-0.1-0.1-0.2-0.1c-0.2-0.1-0.3-0.3-0.3-0.6l0,0c0.2,0,0.4,0.3,0.5,0.4
	C24.8,28.9,24.8,29,24.8,29.2C24.8,29.1,24.8,29.1,24.8,29.2 M20.5,30C20.5,30,20.5,30.1,20.5,30c-0.3,0-0.3-0.3-0.4-0.4
	s-0.1-0.2-0.2-0.3c-0.1-0.1-0.1-0.2-0.2-0.3c-0.1-0.1-0.1-0.3-0.1-0.3c0-0.1-0.1-0.1-0.1-0.2c-0.1-0.1-0.2-0.3-0.3-0.5
	c0-0.1,0-0.1-0.1-0.2c0-0.1-0.1-0.2-0.1-0.4c0-0.1,0-0.2,0-0.2l0,0c0.1,0,0.3,0.4,0.4,0.5s0.2,0.3,0.3,0.4c0.1,0.1,0.1,0.3,0.2,0.5
	c0.1,0.1,0.1,0.2,0.2,0.3c0.1,0.1,0.1,0.3,0.2,0.4c0.1,0.2,0.2,0.3,0.2,0.4S20.6,29.9,20.5,30 M19.7,24.2c0-0.1-0.1-0.1-0.1-0.2
	s0-0.2-0.1-0.2c-0.1-0.3-0.3-0.6-0.4-0.8C19,22.9,19,22.7,19,22.5h0.1c0,0.1,0.1,0.1,0.1,0.1s0,0.1,0.1,0.1c0.1,0.1,0.1,0.2,0.2,0.3
	c0.1,0.2,0.1,0.5,0.2,0.7c0.1,0.1,0.2,0.3,0.2,0.4s0.1,0.1,0.1,0.2s0,0.1,0,0.2s0,0.1,0,0.1C19.9,24.6,19.8,24.3,19.7,24.2
	 M60.2,42.2c-0.2-0.9-2.8-0.5-4.9-0.7C53.4,41.3,51,41,48,40c-2.7-1-5.4-2.1-7.7-3.3c0,0-0.9-0.5-1-0.5c-0.2-0.1-0.3-0.2-0.5-0.3
	c-0.1-0.1-0.3-0.2-0.4-0.2c-0.2-0.1-0.3-0.2-0.4-0.3c-0.1-0.1-0.3-0.2-0.5-0.3s-0.3-0.2-0.5-0.4c-0.1-0.1-0.2-0.1-0.3-0.2
	c-0.1-0.1-0.3-0.2-0.4-0.2c-0.2-0.1-0.3-0.2-0.5-0.3c-0.1-0.1-0.2-0.1-0.3-0.2c-0.1-0.1-0.3-0.2-0.4-0.3c-0.1-0.1-0.1-0.1-0.2-0.2
	c-0.1-0.1-0.3-0.3-0.4-0.4c-0.1-0.1-0.3-0.2-0.4-0.3c-0.1-0.1-0.2-0.2-0.3-0.3c-0.2-0.1-0.3-0.3-0.5-0.4c-0.1-0.1-0.3-0.2-0.4-0.3
	c-0.2-0.1-0.3-0.2-0.5-0.3c-0.1-0.1-0.2-0.2-0.3-0.3c-0.1-0.1-0.2-0.2-0.3-0.3c-0.1-0.1-0.2-0.2-0.3-0.3c-0.1-0.2-0.3-0.3-0.5-0.5
	c-0.1-0.1-0.1-0.1-0.2-0.2c0-0.1-0.1-0.1-0.1-0.2l-0.1-0.1c0,0-0.1-0.1-0.2-0.2c0,0-0.1-0.1-0.2-0.2S30,28.9,30,28.9
	c-0.1-0.1-0.2-0.2-0.3-0.3c-0.1-0.1-0.1-0.1-0.2-0.2l-0.1-0.1c0-0.1-0.1-0.1-0.1-0.1c-0.1-0.1-0.1,0-0.1,0s-0.1,0.1,0,0.2
	s0.1,0.2,0.2,0.3l0,0c0,0,0,0.1,0.1,0.1c0,0.1,0.1,0.1,0.1,0.1c0.1,0.1,0.2,0.2,0.3,0.3l0.1,0.1c0.1,0.1,0.1,0.1,0.1,0.2
	s0.1,0.1,0.1,0.2l0.1,0.1l0.1,0.1l0.1,0.1c0.1,0.1,0.2,0.2,0.2,0.2c0.1,0.1,0.1,0.1,0.2,0.2c0.1,0.2,0.3,0.4,0.5,0.5
	c0.1,0.1,0.2,0.2,0.3,0.3c0.1,0.1,0.2,0.2,0.3,0.3c0.1,0.1,0.2,0.2,0.3,0.3c0.2,0.2,0.3,0.3,0.5,0.5c0.1,0.1,0.2,0.2,0.3,0.3
	s0.2,0.3,0.3,0.3c0.2,0.2,0.2,0.4,0.2,0.4c-0.1,0-0.4-0.2-0.6-0.3c-0.1-0.1-0.2-0.1-0.3-0.2c0,0-0.2-0.2-0.3-0.3s-0.2-0.2-0.3-0.3
	c-0.2-0.3-0.3-0.3-0.6-0.6c-0.2-0.2-0.4-0.4-0.6-0.5c-0.1-0.1-0.1-0.1-0.2-0.2s-0.1-0.1-0.2-0.2s-0.2-0.3-0.3-0.4
	c-0.1-0.1-0.2-0.2-0.3-0.3l-0.1-0.1c-0.1,0-0.1-0.1-0.2-0.1c-0.1-0.2-0.3-0.3-0.4-0.5c-0.1-0.1-0.1-0.1-0.2-0.2
	c-0.1-0.2-0.2-0.4-0.4-0.5c-0.2-0.2-0.4-0.4-0.6-0.6s-0.3-0.5-0.5-0.8c-0.1-0.1-0.2-0.2-0.3-0.3c-0.1-0.1-0.1-0.1-0.1-0.2
	c-0.1-0.1-0.2-0.3-0.3-0.4c-0.1-0.2-0.2-0.4-0.3-0.5c0,0-0.1-0.1-0.1-0.2c-0.1-0.1-0.1-0.2-0.2-0.3c-0.1-0.1-0.1-0.2-0.2-0.3
	c-0.1-0.1-0.1-0.2-0.1-0.2c0-0.1-0.1-0.2-0.1-0.2c-0.1-0.2-0.1-0.3-0.3-0.4c-0.1-0.1-0.1-0.2-0.2-0.1c-0.1,0,0,0.1,0,0.1
	c0,0.1,0,0.1,0.1,0.2c0.1,0.2,0.1,0.2,0.2,0.4c0,0.1,0.1,0.2,0.2,0.3c0.1,0.1,0.1,0.2,0.2,0.3c0,0.1,0.1,0.3,0.2,0.4
	s0.1,0.2,0.2,0.3c0.1,0.2,0.2,0.3,0.3,0.5c0.1,0.1,0.1,0.3,0.2,0.4c0.1,0.2,0.3,0.4,0.4,0.6l0.2,0.4c0.1,0.1,0.2,0.2,0.3,0.3
	c0.1,0.1,0.1,0.3,0.2,0.4s0.2,0.2,0.2,0.3c0.1,0.2,0.3,0.4,0.4,0.5s0.2,0.2,0.2,0.3c0.1,0.1,0.2,0.3,0.3,0.4
	c0.1,0.1,0.1,0.2,0.3,0.3c0.1,0.2,0.5,0.7,0.4,0.7c-0.2,0-0.6-0.4-0.8-0.6c-0.1-0.1-0.3-0.2-0.4-0.3c-0.1-0.2-0.2-0.4-0.4-0.6
	c-0.1-0.1-0.1-0.1-0.2-0.2s-0.2-0.2-0.3-0.3l-0.1-0.1c-0.2-0.2-0.3-0.4-0.5-0.7c0.1-0.4,0-0.4-0.1-0.5s-0.1-0.1-0.1-0.2
	c-0.1-0.1-0.1-0.2-0.2-0.3c-0.1-0.1-0.1-0.1-0.1-0.2c-0.1-0.1-0.2-0.3-0.3-0.4c-0.1-0.1-0.1-0.2-0.1-0.4c-0.2-0.3-0.4-0.5-0.5-0.8
	c0-0.1-0.1-0.1-0.1-0.2c-0.1-0.2-0.3-0.5-0.4-0.7c-0.1-0.1-0.1-0.2-0.1-0.3c-0.1-0.1-0.2-0.2-0.2-0.3c-0.1-0.1-0.1-0.2-0.1-0.2
	c-0.1-0.1-0.1-0.2-0.2-0.3c0-0.1-0.1-0.1-0.1-0.2c-0.2-0.3-0.3-0.5-0.4-0.8c-0.1-0.2-0.2-0.3-0.3-0.5s-0.2-0.3-0.2-0.5
	c0-0.1-0.1-0.2-0.1-0.3C23.2,21,23,20.9,23,20.7c-0.1-0.1-0.1-0.2-0.1-0.3c0-0.1-0.1-0.1-0.1-0.1s0,0.1,0,0.2
	c0.1,0.2,0.1,0.4,0.2,0.5c0.1,0.2,0.1,0.4,0.2,0.7c0.1,0.1,0.1,0.2,0.2,0.3l0.3,0.6c0.1,0.1,0.1,0.2,0.2,0.3c0,0.1,0.1,0.1,0.1,0.2
	c0.1,0.1,0.1,0.3,0.1,0.4c0.1,0.1,0.2,0.3,0.2,0.4c0.3,0.7,0.7,1.3,1,2c0.1,0.2,0.2,0.4,0.3,0.5c0.1,0.2,0.3,0.3,0.4,0.5
	c0.1,0.1,0.1,0.3,0.2,0.5s0.3,0.4,0.4,0.6c0,0.1,0,0.1,0.1,0.2s0.1,0.2,0.2,0.3c0.1,0.1,0.1,0.2,0.2,0.3c0.1,0.1,0.2,0.2,0.3,0.3
	c0.1,0.1,0.2,0.3,0.3,0.5c0.1,0.1,0.2,0.2,0.3,0.3c0.1,0.2,0.5,0.7,0.7,0.8c0.2,0.2,0.5,0.6,0.7,0.9c0,0.1,0.2,0.3,0.2,0.4
	c-0.1,0.1-0.5-0.4-0.6-0.5c-0.2-0.2-0.3-0.4-0.5-0.6c0,0-0.4-0.4-0.5-0.5c0-0.1-0.1-0.1-0.1-0.2c-0.1-0.2-0.2-0.3-0.3-0.5
	c-0.1-0.1-0.1-0.1-0.2-0.2s-0.1-0.3-0.2-0.4c-0.1-0.2-0.3-0.3-0.5-0.5s-0.3-0.5-0.4-0.7c-0.1-0.1-0.2-0.2-0.2-0.3
	c0-0.1-0.1-0.1-0.1-0.1c-0.1-0.1-0.1-0.2-0.2-0.3c0-0.1-0.1-0.2-0.1-0.2c-0.2-0.3-0.3-0.5-0.5-0.8c-0.1-0.1-0.1-0.2-0.2-0.3
	c-0.1-0.2-0.3-0.3-0.4-0.5s-0.2-0.5-0.4-0.7c-0.1-0.1-0.2-0.3-0.3-0.4c-0.1-0.2-0.2-0.3-0.2-0.5c-0.1-0.1-0.2-0.3-0.3-0.4
	c-0.1-0.2-0.1-0.3-0.2-0.5c0-0.1-0.1-0.2-0.1-0.3C23,22.5,23,22.4,23,22.3c-0.1-0.3-0.3-0.6-0.5-0.9c-0.1-0.2-0.2-0.5-0.3-0.7
	c0-0.1-0.1-0.3-0.1-0.4c-0.1-0.3-0.3-0.6-0.4-0.9c-0.1-0.1-0.1-0.3-0.2-0.4c0-0.1,0-0.1,0-0.1c-0.1-0.1-0.1-0.3-0.2-0.4
	c-0.1-0.2-0.1-0.3-0.2-0.5c-0.2-0.5-0.4-1-0.6-1.6c0-0.1,0-0.2-0.1-0.3c-0.1-0.3-0.2-0.5-0.3-0.8c-0.1-0.1-0.2-0.1-0.1,0.1
	c0,0.2,0.1,0.2,0.1,0.4c0,0.1,0,0.1,0,0.2c0,0.1,0.1,0.2,0.1,0.3c0.1,0.2,0.1,0.3,0.1,0.5c0.1,0.2,0.1,0.4,0.2,0.6
	c0,0.1,0,0.2,0.1,0.3c0,0.1,0.1,0.2,0.1,0.3c0.1,0.3,0.2,0.5,0.3,0.8c0,0.1,0.1,0.3,0.1,0.5c0,0.1,0.1,0.2,0.1,0.3
	c0,0.1,0,0.1,0.1,0.2c0.1,0.2,0.1,0.3,0.2,0.5c0.1,0.1,0.1,0.3,0.2,0.4c0,0.1,0,0.1,0.1,0.2c0.2,0.5,0.3,0.9,0.5,1.4
	c0.1,0.1,0.1,0.2,0.1,0.3c0,0.1,0.1,0.2,0.1,0.3c0,0.1,0,0.1,0.1,0.2s0.2,0.2,0.2,0.3c0.2,0.3,0.3,0.7,0.5,1s0.3,0.7,0.4,1
	c0.1,0.1,0.2,0.3,0.3,0.4c0,0.1,0.1,0.2,0.1,0.2c0.1,0.2,0.1,0.3,0.3,0.5c0.1,0.1,0.1,0.2,0.1,0.3c0,0.1,0.1,0.4,0.1,0.4l-0.2-0.1
	c-0.1-0.1-0.2-0.2-0.3-0.4c0-0.1-0.1-0.3-0.2-0.3c-0.1-0.2-0.3-0.4-0.4-0.6c-0.1-0.1-0.1-0.3-0.2-0.4c-0.1-0.2-0.2-0.5-0.3-0.7
	c0-0.1-0.1-0.2-0.2-0.3c-0.1-0.1-0.1-0.2-0.1-0.3c-0.1-0.2-0.3-0.4-0.4-0.6s-0.1-0.3-0.2-0.5c0-0.1-0.1-0.1-0.1-0.1
	c-0.1-0.1-0.1-0.2-0.1-0.3c-0.1-0.1-0.1-0.2-0.2-0.4c-0.1-0.3-0.2-0.5-0.3-0.7c-0.1-0.1-0.1-0.2-0.2-0.3c-0.1-0.2-0.1-0.4-0.2-0.6
	c-0.2-0.5-0.5-1-0.7-1.5c0-0.1,0-0.2-0.1-0.3c-0.1-0.2-0.2-0.4-0.3-0.7c0-0.1,0-0.2-0.1-0.3c-0.1-0.2-0.1-0.3-0.2-0.5
	c0-0.1,0-0.1,0-0.2c-0.1-0.1-0.1-0.3-0.2-0.5c0-0.1-0.1-0.2-0.1-0.2c-0.1-0.1,0-0.3-0.1-0.5c-0.1-0.2-0.2-0.4-0.2-0.6
	c0-0.1,0-0.2-0.1-0.4c-0.1-0.1-0.1-0.3-0.1-0.4c-0.1-0.1-0.1-0.3-0.1-0.5c0-0.1-0.1-0.2-0.1-0.3c-0.1-0.2-0.1-0.4-0.2-0.6V13
	c0-0.1-0.1-0.1-0.1-0.1c-0.1,0-0.1,0.1-0.1,0.1c0,0.1,0.1,0.3,0.1,0.4c0,0.1,0.1,0.3,0.1,0.4c0,0.1,0,0.2,0,0.3s0.1,0.2,0.1,0.3
	s0,0.2,0,0.3c0.1,0.3,0.2,0.5,0.2,0.8c0,0.1,0,0.3,0.1,0.4c0.1,0.1,0.1,0.3,0.1,0.4s0.1,0.2,0.1,0.3c0.1,0.1,0.1,0.2,0.1,0.3
	c0,0.1,0,0.3,0.1,0.5c0.1,0.3,0.2,0.5,0.3,0.7c0,0.1,0,0.2,0.1,0.3c0.1,0.2,0.1,0.4,0.2,0.6c0.1,0.3,0.3,0.6,0.3,0.8
	c0.1,0.3,0.1,0.6,0.2,0.9c0.1,0.1,0.2,0.2,0.2,0.3c0,0.1,0,0.2,0.1,0.3c0,0.1,0.1,0.2,0.1,0.3c0,0.1,0.1,0.2,0.1,0.3
	c0,0.1,0.1,0.2,0.2,0.3c0.1,0.2,0.1,0.3,0.2,0.5c0.1,0.1,0.2,0.2,0.2,0.3c0.1,0.1,0.1,0.3,0.1,0.4c0.1,0.2,0.2,0.4,0.3,0.6
	c0.1,0.2,0.1,0.4,0.2,0.6s0.2,0.3,0.3,0.5c0.1,0.1,0.1,0.3,0.2,0.4s0.1,0.2,0.2,0.3c0.1,0.1,0.1,0.3,0.2,0.4s0.1,0.2,0.1,0.3
	c0.1,0.1,0.2,0.3,0.2,0.4c0.1,0.1,0.2,0.3,0.2,0.4s0.1,0.2,0.1,0.3c0.1,0.1,0.2,0.2,0.2,0.3c0.1,0.1,0.1,0.4,0.1,0.4
	c-0.1,0-0.3-0.2-0.3-0.2c-0.1-0.2-0.2-0.5-0.4-0.7c-0.2-0.2-0.3-0.3-0.4-0.6c-0.1-0.1-0.2-0.4-0.3-0.5c-0.1-0.1-0.2-0.2-0.3-0.4
	C22,25.8,22,25.6,22,25.5c-0.1-0.2-0.2-0.3-0.3-0.4c-0.1-0.2-0.1-0.4-0.2-0.6c0-0.1-0.1-0.2-0.1-0.3c-0.1-0.1-0.1-0.2-0.1-0.3
	c-0.1-0.2-0.3-0.4-0.4-0.6s-0.2-0.5-0.3-0.7c-0.1-0.1-0.2-0.2-0.2-0.4c-0.1-0.2-0.1-0.3-0.2-0.5c0-0.1-0.1-0.2-0.2-0.3
	c-0.1-0.1-0.1-0.3-0.2-0.5c-0.2-0.3-0.3-0.7-0.5-1c-0.1-0.1-0.1-0.3-0.1-0.4c-0.1-0.1-0.1-0.2-0.2-0.3c-0.1-0.3-0.2-0.7-0.3-1
	c-0.1-0.2-0.1-0.3-0.2-0.5c-0.1-0.3-0.1-0.5-0.2-0.8c-0.1-0.4-0.3-0.8-0.4-1.2c0-0.1-0.1-0.2-0.1-0.4c0-0.1-0.1-0.2-0.1-0.4
	c0-0.1-0.1-0.2-0.1-0.4c-0.1-0.3-0.2-0.7-0.3-1c0-0.1,0-0.2-0.1-0.3c0-0.1-0.1-0.1-0.1-0.2c0-0.1,0-0.1-0.1-0.2
	c-0.1-0.3-0.2-0.5-0.3-0.8c0-0.1,0-0.2-0.1-0.3c-0.1-0.3-0.2-0.8-0.3-1.1c0-0.1-0.1-0.1-0.1-0.1c-0.1,0-0.1,0.1,0,0.1
	c0,0.2,0.1,0.3,0.1,0.5c0,0.1,0,0.1,0,0.2c0,0.1,0,0.1,0,0.2c0.1,0.2,0.1,0.5,0.2,0.7c0,0.1,0,0.3,0,0.4c0.1,0.3,0.2,0.7,0.3,1
	c0.1,0.3,0.1,0.6,0.2,0.9c0,0.1,0,0.3,0.1,0.4c0,0.1,0.1,0.2,0.1,0.3s0,0.1,0.1,0.2c0.1,0.2,0.1,0.4,0.2,0.7
	c0.1,0.1,0.1,0.3,0.2,0.5c0,0.1,0,0.1,0,0.2s0.1,0.3,0.1,0.5c0.1,0.3,0.2,0.6,0.3,0.9c0.1,0.2,0.1,0.3,0.1,0.5
	c0.2,0.6,0.5,1.3,0.7,1.9c0,0.1,0.1,0.3,0.1,0.4c0.1,0.1,0.1,0.3,0.2,0.4c0.1,0.2,0.1,0.3,0.2,0.5s0.2,0.4,0.3,0.6
	c0,0.1,0.1,0.2,0.1,0.3c0,0.1,0.1,0.1,0.1,0.2c0.1,0.1,0.1,0.3,0.1,0.4c0.1,0.1,0.2,0.2,0.2,0.3c0.1,0.1,0.1,0.2,0.1,0.4
	c0.1,0.2,0.2,0.4,0.3,0.6c0,0.1,0.1,0.2,0.1,0.3c0,0.1,0.1,0.2,0.2,0.3l0,0c0,0,0,0,0,0.1v0.1c0,0.1,0.1,0.1,0.1,0.2l0.1,0.1
	c0,0,0,0,0.1,0.1s0.1,0.3,0.2,0.5c0.1,0.1,0.2,0.3,0.3,0.4c0.1,0.1,0.1,0.4,0,0.4c-0.3,0-0.3-0.4-0.4-0.6s-0.2-0.3-0.3-0.5
	c0,0,0-0.1-0.1-0.2c0-0.1,0-0.1-0.1-0.2c0-0.1,0-0.1-0.1-0.1c0-0.1-0.1-0.1-0.1-0.2v-0.1c-0.1-0.2-0.2-0.4-0.3-0.5
	c0-0.1-0.1-0.1-0.1-0.2c-0.1-0.1-0.1-0.3-0.2-0.4s-0.1-0.2-0.2-0.3c-0.1-0.1-0.1-0.3-0.1-0.5c0-0.1-0.1-0.2-0.1-0.2
	c-0.1-0.2-0.1-0.3-0.2-0.5c0-0.1-0.1-0.1-0.1-0.2c-0.1-0.1-0.1-0.3-0.2-0.4c-0.1-0.3-0.3-0.6-0.4-0.8c-0.1-0.2-0.1-0.3-0.2-0.5
	c-0.1-0.1-0.1-0.3-0.2-0.4c0-0.1-0.1-0.2-0.1-0.3c-0.1-0.2-0.1-0.3-0.2-0.5c0-0.1-0.1-0.3-0.1-0.5c-0.1-0.1-0.1-0.3-0.2-0.4
	c-0.1-0.2-0.1-0.4-0.2-0.5s-0.1-0.3-0.2-0.4c0-0.1-0.1-0.2-0.1-0.3c0-0.1-0.1-0.2-0.1-0.3c0-0.1-0.1-0.3-0.1-0.4
	c-0.1-0.1-0.1-0.3-0.2-0.5c0-0.1,0-0.4-0.1-0.4c-0.2-0.5-0.3-1-0.5-1.4c-0.1-0.2-0.1-0.4-0.2-0.6c0-0.1,0-0.2,0-0.3
	s-0.1-0.3-0.1-0.4c0-0.1,0-0.2-0.1-0.3c0-0.1-0.1-0.2-0.1-0.3c-0.1-0.3-0.1-0.6-0.2-0.8c0-0.1,0-0.3-0.1-0.4
	c-0.1-0.3-0.1-0.7-0.2-1.1c0-0.1,0-0.2-0.1-0.3c-0.2-0.7-0.3-1.4-0.4-2c0-0.1,0-0.3,0-0.4s-0.1-0.3-0.1-0.4s0-0.1,0-0.2
	s-0.1-0.2-0.1-0.2c-0.1,0-0.1,0.1-0.1,0.2s0,0.3,0.1,0.4c0,0.1,0,0.2,0,0.3c0.1,0.2,0.1,0.5,0.1,0.7c0,0.1,0,0.2,0,0.3
	s0.1,0.2,0.1,0.3s0,0.3,0,0.5c0,0.1,0.1,0.3,0.1,0.4c0,0.1,0,0.2,0,0.3s0.1,0.2,0.1,0.3s0,0.3,0,0.4c0.1,0.6,0.2,1.3,0.4,1.8
	c0,0.1,0,0.2,0,0.2c0.1,0.5,0.3,1,0.4,1.5c0,0.1,0,0.1,0,0.2c0.1,0.2,0.1,0.4,0.1,0.5s0,0.1,0,0.2c0.1,0.2,0.1,0.4,0.2,0.5
	c0,0.1,0,0.2,0,0.3c0,0.1,0.1,0.1,0.1,0.2s0,0.2,0.1,0.3c0,0.1,0.1,0.1,0.1,0.2s0,0.2,0.1,0.3c0,0.1,0.1,0.3,0.2,0.4
	c0,0.1,0,0.2,0.1,0.3c0.1,0.2,0.1,0.4,0.2,0.6c0.1,0.1,0.1,0.3,0.1,0.5c0,0.1,0.1,0.2,0.1,0.3c0,0.1,0,0.1,0.1,0.2
	c0,0.1,0.1,0.2,0.2,0.3c0,0.1,0,0.3,0.1,0.4c0,0.1,0.1,0.2,0.1,0.3c0,0.1,0,0.2,0.1,0.3c0,0.1,0.1,0.2,0.1,0.3
	c0,0.1,0.1,0.2,0.1,0.3c0,0.1,0.1,0.1,0.1,0.2s0.1,0.2,0.1,0.3c0.1,0.1,0.1,0.4,0.1,0.5s0,0.2,0,0.2c-0.1,0-0.2-0.1-0.2-0.2
	c-0.1-0.1-0.2-0.3-0.2-0.4s0-0.1-0.1-0.2c0-0.1-0.1-0.3-0.1-0.4s-0.1-0.2-0.1-0.2c0-0.1,0-0.3-0.1-0.4c0-0.1-0.1-0.1-0.1-0.2
	s0-0.2-0.1-0.2c0-0.1-0.1-0.2-0.1-0.3c0-0.1,0-0.2-0.1-0.3c0-0.1-0.1-0.2-0.1-0.3c-0.1-0.1-0.1-0.2-0.2-0.3c0-0.1,0-0.1-0.1-0.2
	c0-0.1-0.1-0.2-0.1-0.3c0-0.1,0-0.1-0.1-0.2c0-0.1-0.1-0.2-0.1-0.3c0-0.1,0-0.2-0.1-0.3c-0.1-0.1-0.1-0.3-0.1-0.5
	c0-0.1,0-0.2-0.1-0.3c0-0.1-0.1-0.3-0.1-0.4s-0.1-0.2-0.1-0.3c-0.1-0.1-0.1-0.3-0.2-0.4c0-0.1,0-0.2-0.1-0.3
	c-0.1-0.3-0.2-0.6-0.3-0.8c-0.1-0.3-0.1-0.7-0.2-1c-0.1-0.2-0.1-0.4-0.2-0.7c0-0.1,0-0.2-0.1-0.3c-0.1-0.2-0.1-0.6-0.2-0.8
	c0-0.1,0-0.3-0.1-0.4c0-0.1-0.1-0.3-0.1-0.5c0-0.1-0.1-0.2-0.1-0.3s0-0.3,0-0.4c0-0.1-0.2-0.7-0.2-0.8s0-0.3,0-0.3
	C14,9.2,13.9,9,13.9,9c0-0.1,0-0.1,0-0.3c0-0.1-0.1-0.4-0.1-0.5s0-0.2,0-0.3c0-0.1-0.1-0.3-0.1-0.4c0-0.2,0-0.3-0.1-0.5
	c0-0.1-0.1-0.2-0.1-0.3c0-0.1-0.1-0.2-0.1-0.3c0-0.1,0-0.3,0-0.3c0-0.1,0-0.2-0.1-0.4c0-0.2-0.1-0.4-0.1-0.5s0-0.1,0-0.2
	c-0.1-0.2-0.1-0.3-0.2-0.3c1-0.3,1-0.3,1-0.2s0,0.2,0.1,0.4c0,0.1,0,0.3,0,0.3c0,0.1,0,0.1,0,0.2c0,0,0,0.1,0,0.2s0,0.1,0,0.2V6
	c0,0.1,0,0.1,0,0.1c0,0.1,0,0.1,0,0.2s0,0.1,0,0.2s0,0.1,0,0.2s0.1,0.3,0.1,0.5s0,0.4,0.1,0.5c0,0.1,0,0.2,0,0.3l0.1,0.4
	c0,0.1,0,0.2,0,0.3c0,0.2,0.1,0.4,0.2,0.4c0,0.1,0,0.3,0,0.4c0,0.1,0.1,0.3,0.1,0.3c0,0.1,0,0.1,0,0.2c0,0.1,0.1,0.3,0.1,0.4
	c0,0.1,0,0.1,0,0.2c0,0.1,0.1,0.4,0.1,0.5s0,0.1,0,0.2c0,0.1,0.1,0.3,0.1,0.4c0,0.1,0,0.2,0,0.3s0.1,0.2,0.1,0.4c0,0.1,0,0.2,0,0.3
	c0,0.2,0.1,0.4,0.1,0.6c0,0.1,0.1,0.2,0.1,0.3s0,0.2,0.1,0.3c0,0.1,0.1,0.2,0.1,0.3s0,0.2,0,0.3s0.1,0.2,0.1,0.3s0,0.1,0,0.2
	c0,0.1,0.1,0.2,0.1,0.2c0,0.1,0,0.2,0.1,0.3c0,0.1,0.1,0.3,0.1,0.4c0,0.1,0,0.2,0,0.3c0.1,0.3,0.2,0.5,0.2,0.8c0,0.1,0,0.3,0.1,0.4
	c0,0.1,0.1,0.1,0.1,0.2s0,0.2,0,0.3c0,0.2,0.1,0.4,0.1,0.5c0.1,0.2,0.1,0.3,0.2,0.5s0.1,0.3,0.1,0.5c0.1,0.1,0.1,0.3,0.2,0.4
	s0,0.3,0.1,0.4c0,0.1,0.1,0.3,0.2,0.4c0.1,0.2,0.1,0.3,0.2,0.5c0,0.1,0,0.1,0,0.2c0.1,0.2,0.2,0.4,0.3,0.6c0,0.1,0,0.2,0.1,0.3
	c0.1,0.1,0.1,0.3,0.2,0.5c0.1,0.1,0.1,0.2,0.2,0.4c0.1,0.1,0.1,0.2,0.1,0.4c0,0.1,0.1,0.3,0.1,0.4s0,0.1,0.1,0.2
	c0.1,0.3,0.3,0.6,0.5,1c0.1,0.2,0.1,0.4,0.2,0.5s0.1,0.3,0.2,0.4c0,0.1,0.1,0.2,0.1,0.3c0.1,0.2,0.2,0.3,0.3,0.5
	c0,0,0.1,0.2,0.1,0.3l0,0c-0.1,0-0.2-0.1-0.2-0.1c-0.2-0.2-0.3-0.6-0.4-0.8c0-0.1-0.1-0.2-0.1-0.2c0-0.1,0-0.1-0.1-0.2
	c-0.1-0.2-0.2-0.3-0.3-0.5c-0.1-0.1-0.1-0.3-0.1-0.4c-0.3-0.5-0.5-1-0.7-1.5c-0.1-0.2-0.1-0.5-0.2-0.8c-0.1-0.1-0.1-0.3-0.2-0.4
	s-0.1-0.2-0.1-0.3c-0.1-0.1-0.2-0.3-0.2-0.5c0-0.1-0.1-0.2-0.1-0.3c0-0.1-0.1-0.2-0.2-0.3c-0.1-0.2-0.1-0.3-0.1-0.5
	c0-0.1-0.1-0.2-0.1-0.3c0-0.1,0-0.2-0.1-0.3c-0.1-0.2-0.2-0.4-0.3-0.6c-0.1-0.1,0-0.3-0.1-0.4s-0.1-0.2-0.2-0.3c0-0.1,0-0.3,0-0.4
	S16,17.7,16,17.6s0-0.2-0.1-0.2c-0.1-0.2-0.1-0.3-0.2-0.5c0-0.1,0-0.2-0.1-0.2c0-0.1-0.1-0.2-0.1-0.3c0-0.1-0.1-0.3-0.1-0.5
	c-0.1-0.2-0.1-0.4-0.2-0.5c0-0.1,0-0.1,0-0.2c-0.1-0.2-0.1-0.4-0.1-0.5s0-0.2,0-0.2C15,14.3,15,14.2,14.9,14c0-0.1,0-0.2-0.1-0.3
	c-0.1-0.3-0.1-0.6-0.2-0.8c0-0.1,0-0.1,0-0.2c-0.1-0.2-0.1-0.4-0.2-0.6c0-0.1,0-0.2-0.1-0.3c0-0.1-0.1-0.3-0.1-0.4
	c0-0.1,0-0.1,0-0.2c0-0.1,0-0.2,0-0.3c-0.1-0.4-0.2-0.8-0.3-1.1c0-0.1,0-0.3-0.1-0.4c0-0.1,0-0.2-0.1-0.3c0-0.1-0.1-0.2-0.1-0.3
	s0-0.3,0-0.5l0,0c0-0.2-0.1-0.5-0.1-0.7s-0.1-0.3-0.1-0.5c0-0.1,0-0.2,0-0.3c0-0.2-0.1-0.3-0.1-0.5c0-0.1,0-0.2,0-0.3
	c0-0.1,0-0.2-0.1-0.2S13.1,5.9,13.1,6c0,0.2,0,0.4,0,0.5c0,0.2,0,0.4,0,0.7c0,0.1,0.1,0.3,0.1,0.4c0,0.2,0.1,0.4,0.1,0.6l0,0
	c0,0.1,0,0.2,0,0.3l0,0l0,0l0,0v0.1c0,0.1,0,0.1,0,0.2c0.1,0.3,0.1,0.5,0.1,0.7c0.1,0.3,0.1,0.7,0.3,1.1c0,0.1,0,0.2,0,0.3
	s0.1,0.2,0.1,0.3s0,0.3,0,0.4s0.1,0.3,0.1,0.4c0,0.1,0,0.3,0.1,0.4c0,0.2,0.1,0.3,0.1,0.5s0.1,0.4,0.1,0.6c0,0.2,0.1,0.3,0.2,0.5
	c0,0.1,0,0.1,0,0.2c0,0.1,0.1,0.3,0.1,0.4c0,0.1,0,0.1,0,0.2c0.1,0.2,0.1,0.5,0.2,0.7c0,0.1,0,0.1,0,0.2c0.1,0.2,0.1,0.3,0.1,0.4
	s0,0.2,0,0.3c0,0.1,0.1,0.2,0.1,0.3c0,0.1,0,0.2,0.1,0.3c0,0.1,0.1,0.2,0.1,0.3c0.1,0.2,0.1,0.4,0.1,0.6c0,0.1,0.1,0.2,0.1,0.3
	c0,0.1,0,0.3,0.1,0.4c0.1,0.2,0.1,0.4,0.2,0.6c0.1,0.2,0.1,0.5,0.2,0.7c0,0.1,0,0.2,0.1,0.3c0.1,0.2,0.1,0.5,0.2,0.7
	c0,0.1,0,0.2,0.1,0.3c0.1,0.2,0.2,0.3,0.3,0.5c0.1,0.2,0.1,0.3,0.1,0.5c0.1,0.2,0.2,0.4,0.3,0.6c0.1,0.1,0.1,0.3,0.1,0.5
	c0.1,0.1,0.1,0.2,0.2,0.4c0,0.1,0.1,0.2,0.1,0.3c0,0.1,0.1,0.2,0.2,0.3c0.5-0.3,0.5-0.1,0.5,0c0.1,0.3,0.2,0.5,0.3,0.7
	c0,0.1,0.1,0.2,0.1,0.3c0.1,0.2,0.2,0.3,0.2,0.4s0.1,0.3,0.1,0.4c0.1,0.2,0.2,0.3,0.2,0.6v0.1c-0.1,0-0.1-0.1-0.1-0.1
	c-0.2-0.2-0.2-0.3-0.3-0.5c-0.1-0.3-0.3-0.6-0.5-0.9c-0.1-0.2-0.1-0.3-0.2-0.5c0-0.1-0.1-0.2-0.1-0.3c-0.1-0.1-0.1-0.3-0.2-0.4
	c-0.1-0.2-0.2-0.4-0.3-0.6c0-0.1,0-0.2-0.1-0.2c0-0.1-0.1-0.2-0.1-0.3c-0.1-0.1-0.1-0.3-0.1-0.4c-0.1-0.3-0.3-0.5-0.3-0.8
	c-0.1-0.3-0.1-0.5-0.2-0.7c0-0.1-0.1-0.2-0.1-0.3c0-0.1,0-0.2-0.1-0.3c-0.1-0.2-0.2-0.5-0.3-0.7c-0.1-0.1-0.1-0.2-0.1-0.3
	c-0.1-0.1-0.1-0.3-0.2-0.4c-0.1-0.2-0.1-0.4-0.1-0.6c-0.1-0.4-0.3-0.8-0.5-1.3c0-0.1,0-0.2,0-0.3c-0.1-0.2-0.1-0.5-0.2-0.7
	c-0.1-0.3-0.1-0.5-0.1-0.8c-0.1-0.3-0.2-0.7-0.3-1c0-0.1,0-0.2,0-0.3c-0.1-0.3-0.2-0.5-0.2-0.8c0-0.1,0-0.2-0.1-0.3
	s-0.2-0.1-0.2,0.1c0,0.1,0.1,0.3,0.1,0.4c0,0.1,0,0.2,0,0.3c0,0.2,0.1,0.3,0.1,0.5c0.1,0.2,0.1,0.3,0.1,0.5c0,0.1,0.1,0.2,0.1,0.3
	c0.1,0.2,0.1,0.3,0.1,0.5c0,0.1,0.1,0.3,0.1,0.4c0,0.1,0,0.2,0.1,0.2c0,0.1,0.1,0.3,0.1,0.5c0,0.1,0,0.2,0,0.3
	c0,0.1,0.1,0.3,0.1,0.3c0,0.1,0,0.3,0.1,0.4c0.1,0.2,0.1,0.4,0.2,0.6c0.1,0.2,0.1,0.5,0.2,0.7c0.1,0.4,0.3,0.8,0.4,1.2
	c0,0.1,0,0.2,0.1,0.3c0,0.2,0.1,0.3,0.1,0.5c0,0.1,0.1,0.2,0.1,0.3c0,0.1,0.1,0.2,0.1,0.3c0,0.1,0.1,0.2,0.1,0.3
	c0.1,0.1,0,0.3,0.1,0.4c0,0.1,0.1,0.2,0.1,0.3c0,0.1,0,0.2,0.1,0.3c0,0.1,0.1,0.2,0.1,0.3c0,0.1,0.1,0.2,0.1,0.3
	c0,0.1,0.1,0.2,0.1,0.3c0,0.1,0.1,0.2,0.1,0.3c0,0.1,0.1,0.2,0.1,0.3c0,0.1,0,0.2,0.1,0.3c0.1,0.2,0.1,0.3,0.2,0.5
	c0,0.1,0.1,0.2,0.1,0.3c0.1,0.1,0.1,0.3,0.2,0.4c0.1,0.2,0.1,0.3,0.2,0.5c0.1,0.3,0.2,0.6,0.3,0.9c0.1,0.2,0.2,0.4,0.3,0.6
	c0.1,0.1,0.1,0.2,0.1,0.3c0.1,0.1,0.2,0.2,0.2,0.4c0.1,0.1,0.1,0.3,0.1,0.4c0.1,0.2,0.2,0.3,0.3,0.5c0,0.1,0.1,0.2,0.1,0.3
	c0.1,0.2,0.2,0.3,0.3,0.5c0,0.1,0.1,0.2,0.1,0.3c0.1,0.2,0.2,0.3,0.3,0.5c0.1,0.1,0.1,0.3,0.2,0.4c0.1,0.2,0.2,0.3,0.3,0.5
	c0.1,0.1,0.2,0.3,0.3,0.4c0.1,0.1,0.2,0.3,0.2,0.4c0.1,0.1,0.1,0.3,0.2,0.4c0.1,0.1,0.2,0.3,0.3,0.4c0.1,0.2,0.2,0.5,0.4,0.7
	c0.1,0.1,0.2,0.3,0.3,0.5c0.3,0.4,0.7,1.1,0.9,1.3c0.1,0.2,0.3,0.4,0.4,0.6c0.1,0.2,0.2,0.3,0.3,0.5c0.1,0.1,0.2,0.3,0.3,0.4
	l0.1,0.1c3.7,4.7,7.4,7.8,10.6,9.8h-0.2c1.7,1,2.6,1.4,2.6,1.4c0.2,0.1,0.1,0.3,0,0.3l-19,12.1c-0.1,0-0.2,0.1-0.1,0.3
	c0.1,0.1,0.3,0,0.3,0c15.2-5.4,26.3-9.7,33-12.9C58.2,44.9,60.5,43.1,60.2,42.2"/>
</svg>
