<?xml version="1.0" encoding="utf-8"?>
<!-- Generator: Adobe Illustrator 19.0.0, SVG Export Plug-In . SVG Version: 6.00 Build 0)  -->
<svg version="1.1" id="Layer_1" xmlns="http://www.w3.org/2000/svg" x="0px" y="0px"
     viewBox="-105 197 400 400" style="enable-background:new -105 197 400 400;" xml:space="preserve">
<style type="text/css">
	.st0{fill:#D12149;}
	.st1{fill:#4C5C65;}
</style>
    <g>
	<g>
		<path class="st0" d="M-58.7,369l4.3-9.1h-37.5c0,0,0.9,1.9,2.2,4.7c0.9,2,1.3,3.3,0.7,6.5c0,0.1-5.6,31.6-6,34
			c-0.4,2.5,1.1,3.7,3,3.7c1.9,0,31.6,0,31.6,0l-2.1-9.1h-20.2l2-11.1H-62l1.6-9.2H-79l1.8-10.2L-58.7,369L-58.7,369z"/>
        <path class="st0" d="M240,369l4.3-9.1h-35.7c0,0,0.9,1.9,2.2,4.7c0.9,2,1.3,3.3,0.7,6.5c0,0.1-5.6,31.6-6,34
			c-0.4,2.5,1.1,3.7,3,3.7c1.9,0,29.8,0,29.8,0l-2.1-9.1h-18.5l2-11.1h16.9l1.6-9.2h-16.9l1.8-10.2L240,369L240,369z"/>
        <path class="st0" d="M8.9,372.2c0.8-2.6,3.7-3.2,7.9-3.2h7.6l3.3-9.1c0,0-11.8,0-13,0c-4.7,0-15.4-0.4-17.8,10
			c-3.2,14.6,15.7,18.8,14.8,25.4c-0.6,3.9-4.3,4.2-9.4,4.2c-2.9,0-11.3,0-11.3,0l2.1,9.1H6c6.6,0,15.9-1.2,18.1-9.5
			C28,384.3,6.8,379.5,8.9,372.2L8.9,372.2z"/>
        <path class="st0" d="M150.5,374.2c0.6-8-4.4-14.4-16.9-14.4h-18.3l2.2,4.7c0.9,2,1.3,3.3,0.7,6.5l-6.6,37.7h11l3.2-18.3
			c0,0,0.8-0.1,3.1,0c3,0.2,3.5,2.3,9.6,18.3h12c-6.5-16.1-7.6-19.1-9.6-21.1C145.8,385.6,150,380.9,150.5,374.2L150.5,374.2z
			 M139.5,375.2c-0.7,4-4.2,7-8.5,7h-3.7l2.3-13.2h4.2C137.9,369,140.1,371.6,139.5,375.2L139.5,375.2z"/>
        <polygon class="st0"
                 points="29.9,359.8 33.2,369 44.6,369 37.6,408.7 49.1,408.7 56.1,369 68.8,369 72.2,359.8 		"/>
        <polygon class="st0"
                 points="245.3,359.8 248.6,369 258.2,369 251.2,408.7 262.7,408.7 269.7,369 281.7,369 285,359.8 		"/>
        <path class="st0" d="M185.1,349.8c-0.4,0-1.1-0.1-1.6-0.1c-13.9-1.5-17.5-2.5-18.5-20.3c0,0-0.1-0.9-0.8-0.9
			c-0.8,0-0.8,0.9-0.8,0.9c-1,17.8-4.5,18.8-18.5,20.3c-0.5,0.1-1.2,0.1-1.6,0.1c-0.4,0-0.9,0.2-0.9,0.5c0,0.4,0.4,0.5,0.9,0.6
			c15.4,1.9,18.8,3.2,20.1,25.4c0,0.5,0.2,1,0.8,1c0.5,0,0.8-0.5,0.8-1c1.3-22.1,4.8-23.5,20.1-25.4c0.5-0.1,0.9-0.2,0.9-0.6
			C186,350,185.5,349.8,185.1,349.8L185.1,349.8z"/>
        <path class="st0" d="M186.1,359.8l2.2,4.7c0.9,2,1.3,3.3,0.7,6.5l-3.3,18.6c-3.2,18.1-12.4,18.1-18.2,18.1
			c-1.1,1.7,11,4.4,18.8,0.7c6.1-2.9,9.1-8.1,10.6-16.9c0.4-2.4,5.6-31.8,5.6-31.8L186.1,359.8L186.1,359.8z"/>
        <path class="st0" d="M97,363.5c-0.5-2.1-2.1-3.7-4.5-3.7c-2.2,0-14.1,0-14.1,0l2.3,4.9c1,2.1,0.8,3.5-0.4,5.9l-20.1,38h11.6
			l5.9-11.6h16.2l2.2,11.6h11.4C107.5,408.7,97.5,365.6,97,363.5L97,363.5z M82.3,388l7.2-14.3l2.7,14.3H82.3L82.3,388z"/>
        <path class="st0" d="M-21.4,363.5c-0.5-2.1-2.1-3.7-4.5-3.7c-2.2,0-14.1,0-14.1,0l2.3,4.9c1,2.1,0.8,3.5-0.4,5.9l-20.1,38h11.6
			l5.9-11.6h16.2l2.2,11.6h11.4C-10.9,408.7-20.9,365.6-21.4,363.5L-21.4,363.5z M-36.2,388l7.2-14.3l2.7,14.3H-36.2L-36.2,388z"/>
	</g>
        <path class="st1" d="M19.5,433.4c5.1,0,9.2,4.2,9.2,9.5c0,5.3-4.1,9.5-9.2,9.5c-5.1,0-9.3-4.2-9.3-9.5
		C10.3,437.6,14.4,433.4,19.5,433.4L19.5,433.4z M14.6,442.9c0,3.2,2.1,6.3,4.9,6.3c2.8,0,4.9-2.9,4.9-6.2s-2.1-6.3-4.9-6.3
		C16.8,436.7,14.6,439.6,14.6,442.9L14.6,442.9z"/>
        <path class="st1" d="M42.7,457.8h32.1v3.3H42.7V457.8L42.7,457.8z M56.5,436c0-2.8-0.9-3.5-0.9-3.5h5.7v6c0,7.2,5.8,10.3,11.6,10.3
		c0.3,0,0.3,0.2,0.1,0.3l-2.4,2.9c-3.8,0-9.3-2.2-11.4-6.4c-0.3-0.5-0.4-0.5-0.6,0c-2.1,4.2-7.7,6.3-11.4,6.3l-2.4-2.9
		c-0.1-0.2-0.2-0.3,0.1-0.3c5.7,0,11.7-3.1,11.7-11L56.5,436L56.5,436z M56.5,436c0-2.8-0.9-3.5-0.9-3.5h5.7v6
		c0,7.2,5.8,10.3,11.6,10.3c0.3,0,0.3,0.2,0.1,0.3l-2.4,2.9c-3.8,0-9.3-2.2-11.4-6.4c-0.3-0.5-0.4-0.5-0.6,0
		c-2.1,4.2-7.7,6.3-11.4,6.3l-2.4-2.9c-0.1-0.2-0.2-0.3,0.1-0.3c5.7,0,11.7-3.1,11.7-11L56.5,436L56.5,436z"/>
        <path class="st1" d="M82.3,450.5c0,0.5,0.3,0.8,0.7,0.8h11.4c2.9,0,4.4-0.6,5.4-1.4v-15.8c0-2.8-0.9-3.4-0.9-3.4h5.1v11.1h4.6v3.3
		H104v19.7h-4.2v-11.6c-1.5,1.1-3.2,1.3-6.8,1.3H82.3c-2.8,0-4.2-1.4-4.2-4.6v-13.6c0-2.6-0.9-3.4-0.9-3.4h16.9v3.3H82.3v5.6h11.1
		v3.3H82.3V450.5L82.3,450.5z"/>
        <path class="st1" d="M116.6,437.7h-3.7v-3.3h7.8v-0.9c0-2.7-0.9-3.4-0.9-3.4h5.4v4.3h7.8v3.3h-3.8c0.8,1.2,1.3,2.6,1.3,4.2
		c0,4.1-3.4,7.5-7.6,7.5c-4.1,0-7.6-3.4-7.6-7.5C115.3,440.3,115.8,438.9,116.6,437.7L116.6,437.7z M119.6,441.9
		c0,2.3,1.5,4.2,3.3,4.2c1.7,0,3.3-1.9,3.3-4.1c0-2.3-1.3-4.2-3.3-4.2C121.2,437.7,119.6,439.6,119.6,441.9L119.6,441.9z
		 M131.3,449.8c4.6,0,8.3,3.5,8.3,7.9c0,4.3-3.7,7.8-8.3,7.8c-4.5,0-8.2-3.5-8.2-7.8C123,453.3,126.7,449.8,131.3,449.8L131.3,449.8
		z M131.3,453.2c-2.1,0-3.9,1.9-3.9,4.5c0,2.5,1.8,4.4,3.9,4.4c2.1,0,4-1.9,4-4.4C135.2,455.2,133.4,453.2,131.3,453.2L131.3,453.2z
		 M145.7,437.7v3.7h-4.6v8.6h-4.2v-15.9c0-2.7-0.9-3.4-0.9-3.4h5.1v7L145.7,437.7L145.7,437.7z"/>
        <path class="st1" d="M179.8,445v3.4h-31V445h11.8v-3.4c0-2.5-0.9-3.2-0.9-3.2h5.3v6.6H179.8L179.8,445z M172,436
		c0-0.5-0.1-0.7-0.7-0.7h-19v-3.4H176c0.3,0,0.3,0.2,0.3,0.4v5.1c0,3.6-0.5,4.5-1.5,5.9h-4.2c1.1-1.5,1.4-3.1,1.4-6.3L172,436
		L172,436z M164.3,449.9c4.5,0,8.2,3.6,8.2,7.9c0,4.3-3.7,7.8-8.2,7.8c-4.5,0-8.2-3.5-8.2-7.8C156,453.4,159.7,449.9,164.3,449.9
		L164.3,449.9z M164.3,453.3c-2.1,0-4,2-4,4.5c0,2.5,1.9,4.4,4,4.4c2.2,0,4-2,4-4.4C168.3,455.2,166.4,453.3,164.3,453.3
		L164.3,453.3z"/>
        <path class="st1" d="M33.6,464.8v-30.7c0-2.9-0.9-3.5-0.9-3.5h5.1v34.2L33.6,464.8L33.6,464.8z"/>
</g>
</svg>
