<?xml version="1.0" encoding="utf-8"?>
<!-- Generator: Adobe Illustrator 23.0.1, SVG Export Plug-In . SVG Version: 6.00 Build 0)  -->
<svg version="1.1" id="Layer_1" xmlns="http://www.w3.org/2000/svg" x="0px" y="0px"
     viewBox="0 0 70 70" style="enable-background:new 0 0 70 70;" xml:space="preserve">
<style type="text/css">
	.st0{fill:#FFFFFF;}
	.st1{fill:#DB222D;}
	.st2{fill:none;}
</style>
    <rect class="st0" width="70" height="70"/>
    <path class="st1" d="M7.8,29.6c0,0.8,0.1,1.5,0.4,2.2c1.4,3.3,4.7,5.3,9,3.6c1-0.4,29.6-11.9,29.6-11.9S35.5,52,35.1,53.1
	c-1.6,4.1,0.3,7.8,3.7,9c0.7,0.2,1.5,0.4,2.2,0.4c2.7,0,5.1-1.6,6.3-4.8c0.2-0.5,14.2-39,14.5-40c0.2-0.6,0.5-1.8,0.5-2.7
	c0-1.9-0.7-3.7-2.1-5.1c-1.4-1.4-3.1-2-5-2c-0.9,0-1.7,0.2-2.8,0.6c-0.6,0.2-36.9,13.6-40,14.8C9.5,24.4,7.8,26.8,7.8,29.6z"/>
    <rect class="st2" width="70" height="70"/>
</svg>
