<?xml version="1.0" encoding="utf-8"?>
<!-- Generator: Adobe Illustrator 23.0.1, SVG Export Plug-In . SVG Version: 6.00 Build 0)  -->
<svg version="1.1" id="Layer_1" xmlns="http://www.w3.org/2000/svg" x="0px" y="0px"
     viewBox="0 0 70 70" style="enable-background:new 0 0 70 70;" xml:space="preserve">
<style type="text/css">
	.st0{fill:#742A90;}
	.st1{fill:none;}
</style>
    <g>
	<path class="st0" d="M26.2,38.3c0,0.6-0.5,1.1-1.1,1.1H7.9c-0.6,0-1.1-0.5-1.1-1.1V25.7c0-0.6-0.5-1.1-1.1-1.1H2.2
		c-0.6,0-1.1,0.5-1.1,1.1v33.9c0,0.6,0.5,1.1,1.1,1.1h3.6c0.6,0,1.1-0.5,1.1-1.1V45.8c0-0.6,0.5-1.1,1.1-1.1h17.2
		c0.6,0,1.1,0.5,1.1,1.1v13.7c0,0.6,0.5,1.1,1.1,1.1H31c0.6,0,1.1-0.5,1.1-1.1V6c0-0.6-0.5-1.1-1.1-1.1h-3.6c-0.6,0-1.1,0.5-1.1,1.1
		L26.2,38.3L26.2,38.3z"/>
</g>
    <g>
	<path class="st0" d="M69.2,25.2c0.3-0.5,0.1-0.9-0.5-0.9h-4.3c-0.6,0-1.3,0.4-1.6,0.9l-8.2,13.3c-0.3,0.5-1,0.9-1.6,0.9h-8.2
		c-0.6,0-1.1-0.5-1.1-1.1V13.8c0-0.6-0.5-1.1-1.1-1.1H39c-0.6,0-1.1,0.5-1.1,1.1v45.7c0,0.6,0.5,1.1,1.1,1.1h3.6
		c0.6,0,1.1-0.5,1.1-1.1V45.8c0-0.6,0.5-1.1,1.1-1.1h7.8c0.6,0,1.3,0.4,1.6,0.9l8.6,14.1c0.3,0.5,1,0.9,1.6,0.9h4.3
		c0.6,0,0.8-0.4,0.5-0.9L59.1,43.3c-0.3-0.5-0.3-1.3,0-1.8L69.2,25.2z M56.7,42.3c0.1,0,0.1,0.1,0,0.2c-0.1,0-0.1,0-0.1-0.1
		C56.6,42.3,56.6,42.3,56.7,42.3z"/>
</g>
    <rect class="st1" width="70" height="70"/>
</svg>
