<?xml version="1.0" encoding="utf-8"?>
<!-- Generator: Adobe Illustrator 21.1.0, SVG Export Plug-In . SVG Version: 6.00 Build 0)  -->
<svg version="1.1" id="Layer_1" xmlns="http://www.w3.org/2000/svg" x="0px" y="0px"
     viewBox="0 0 70 70" style="enable-background:new 0 0 70 70;" xml:space="preserve">
<style type="text/css">
	.st0{fill:#18B898;}
	.st1{fill:#B4BAAE;}
	.st2{fill:#008A7C;}
</style>
    <title>AirSeoul_logos_size</title>
    <path class="st0" d="M33.9,44.2c0,0.3,0,0.7,0,1l0.4,1.2h12l-5-13.2C36.8,35.1,33.9,39.4,33.9,44.2z"/>
    <path class="st0" d="M37.5,23.1L29.9,2.8H17.5L0.8,46.4h12l10.9-30.2l4.6,13C30.8,26.5,34,24.4,37.5,23.1z"/>
    <path class="st1" d="M45.9,21.7c-2.8,0-5.7,0.5-8.3,1.4l3.8,10.1c1.4-0.6,3-0.9,4.5-0.9c6.7,0,12.1,5.3,12.2,12
	c0,6.7-5.3,12.1-12,12.2c-6.4,0-11.7-4.9-12.1-11.3l-5.6-16c-3.7,4.1-5.8,9.5-5.7,15c0,13.5,9.4,22.9,23.3,22.9s23.3-9.5,23.3-22.9
	C69.2,31.4,58.8,21.7,45.9,21.7z"/>
    <path class="st2"
          d="M33.9,44.2c0-4.8,3-9.2,7.5-11l-3.8-10.1c-3.5,1.3-6.7,3.4-9.3,6.1l5.6,16C33.9,44.9,33.9,44.5,33.9,44.2z"/>
</svg>
